<?xml version="1.0" encoding="UTF-8"?>
<svg width="512pt" height="512pt" version="1.0" viewBox="0 0 512 512" xmlns="http://www.w3.org/2000/svg">
<g transform="translate(0 512) scale(.1 -.1)" fill="#ec0400">
<path d="m1916 4949c-669-71-1257-479-1551-1077-88-180-140-338-177-542-30-166-31-496 0-660 53-287 149-527 302-758 304-456 765-752 1325-849 139-24 471-24 610 0 215 38 391 95 577 187 103 52 247 141 302 187l29 25 651-651c358-358 656-651 661-651 13 0 315 302 315 315 0 6-293 303-650 660l-651 651 34 44c258 339 404 813 383 1250-36 793-512 1458-1251 1750-259 103-618 150-909 119zm495-478c445-90 830-379 1038-781 67-129 111-251 143-397 32-143 32-443 0-590-129-595-579-1046-1175-1175-148-32-446-32-594 0-597 130-1042 576-1175 1179-32 143-31 433 1 583 66 309 193 542 416 765 246 247 528 387 870 434 105 15 363 5 476-18z"/>
<path d="m1478 3633c-112-111-148-153-148-172s52-77 225-251l225-225-200-201c-149-149-200-206-200-224s38-62 143-167c118-118 148-143 172-143s61 32 227 197l198 197 198-197c166-165 203-197 227-197s54 25 172 143c105 105 143 149 143 167s-51 75-200 224l-200 201 225 225c169 170 225 232 225 250 0 30-285 320-315 320-11 0-109-90-247-227l-228-227-228 227c-135 134-236 227-247 227s-82-63-167-147z"/>
</g>
</svg>