<?xml version="1.0" encoding="UTF-8"?>
<svg width="512pt" height="512pt" version="1.0" viewBox="0 0 512 512" xmlns="http://www.w3.org/2000/svg">
<g transform="translate(0 512) scale(.1 -.1)" fill="#256aff">
<path d="m2235 5110c-763-53-1364-243-1677-530-85-78-168-201-205-305l-28-80-3-1602c-3-1762-5-1676 58-1811 90-193 254-338 531-471 855-411 2442-412 3296-1 275 132 439 276 529 465 67 139 64 48 64 1785 0 1727 2 1645-60 1778-90 193-254 338-531 471-303 146-678 239-1151 286-187 19-646 27-823 15zm665-321c672-47 1220-219 1458-457 352-352-84-748-998-906-282-49-428-60-800-60-371 0-518 11-800 60-593 102-1009 312-1101 553-119 313 328 621 1096 755 132 23 382 52 505 59 137 8 508 6 640-4zm-2041-1413c768-396 2218-447 3148-110 150 54 276 116 391 190l83 54-3-317-3-318-29-55c-138-262-633-467-1336-551-253-31-798-34-1050-6-313 35-545 82-774 158-320 107-530 245-615 404l-26 50-3 318-3 317 67-45c37-24 106-65 153-89zm-84-887c380-275 1221-442 2022-401 764 40 1304 196 1651 478l33 27-6-678-29-55c-141-268-661-477-1386-557-233-25-767-25-1e3 0-512 56-921 176-1176 343-82 54-176 150-210 214l-29 55-6 678 33-27c18-14 65-49 103-77zm0-960c380-275 1221-442 2021-401 765 40 1305 196 1652 478l32 27v-315c0-360-3-380-76-477-185-246-695-430-1394-503-189-20-755-17-950 5-758 85-1293 312-1401 596-17 47-19 79-19 372v322l33-27c17-14 64-49 102-77z"/>
<path d="m3930 3018c-48-25-90-89-90-138 0-14 10-46 23-70 24-48 88-90 137-90 14 0 46 10 70 23 48 24 90 88 90 137s-42 113-90 138c-24 12-56 22-70 22s-46-10-70-22z"/>
<path d="m3952 2073c-13-3-41-22-62-43-53-53-62-110-29-177 18-36 35-54 69-70 24-13 56-23 70-23s46 10 70 23c48 24 90 88 90 137 0 14-10 46-22 70-35 68-104 99-186 83z"/>
<path d="m3930 1098c-48-25-90-89-90-138 0-14 10-46 23-70 24-48 88-90 137-90 14 0 46 10 70 23 48 24 90 88 90 137s-42 113-90 138c-24 12-56 22-70 22s-46-10-70-22z"/>
</g>
</svg>
