<?xml version="1.0" encoding="UTF-8"?>
<svg width="512pt" height="512pt" version="1.0" viewBox="0 0 512 512" xmlns="http://www.w3.org/2000/svg">
<g transform="translate(0 512) scale(.1 -.1)" fill="#256aff">
<path d="m2965 4329c-12-6-26-19-33-30-18-29-1082-3715-1082-3749 0-49 28-69 135-101 55-16 114-29 132-29 73 0 35-116 617 1901 295 1021 536 1867 536 1882 0 49-37 75-150 107-115 32-125 33-155 19z"/>
<path d="m668 3133-668-668v-90-90l658-656c361-362 667-662 680-669 42-21 75-3 169 93 95 95 113 128 93 169-7 12-267 278-578 590l-567 568 570 570c314 313 574 581 579 594 15 39-9 78-105 171-141 136-47 202-831-582z"/>
<path d="m3621 3715c-96-93-120-132-105-171 5-13 265-281 579-594l570-570-573-573c-510-510-573-577-579-610-5-36-3-40 92-137 54-55 107-102 117-106 11-3 31-3 46 1 18 4 253 232 690 668l662 662v90 90l-668 668c-784 784-690 718-831 582z"/>
</g>
</svg>