<?xml version="1.0" encoding="UTF-8"?>
<svg width="128pt" height="128pt" version="1.0" viewBox="0 0 128 128" xmlns="http://www.w3.org/2000/svg">
<g transform="translate(0 128) scale(.1 -.1)" fill="#256aff">
<path d="m612 1248c-17-17-17-279 0-296 19-19 45-14 62 10 19 26 23 229 6 272-10 28-47 35-68 14z"/>
<path d="m202 1078c-26-26-11-54 81-146 91-91 119-106 145-80s11 54-81 146c-91 91-119 106-145 80z"/>
<path d="m932 996c-90-91-105-119-80-144 26-26 54-11 146 81 91 91 106 119 80 145-27 27-55 11-146-82z"/>
<path d="m570 901c-75-24-148-90-177-159-16-39-21-132-9-169l7-23h250c285 0 264-8 263 95 0 102-54 189-147 237-45 22-145 33-187 19z"/>
<path d="m30 665c-17-21-4-61 22-69 13-3 73-6 133-6 117 0 155 12 155 49 0 36-20 41-161 41-109 0-139-3-149-15z"/>
<path d="m952 668c-19-19-14-45 10-62 17-12 50-16 143-16 137 0 159 8 153 55l-3 30-145 3c-105 2-149-1-158-10z"/>
<path d="m403 528c6-19 468-19 475 0 3 9-49 12-238 12s-241-3-237-12z"/>
<path d="m435 480c8-14 412-14 420 0 4 7-68 10-210 10s-214-3-210-10z"/>
<path d="m284 348c-93-91-109-119-82-146 26-26 54-11 146 81 95 95 110 126 73 147-11 5-25 10-32 10-6 0-54-41-105-92z"/>
<path d="m552 433c49-2 127-2 176 0 48 1 8 3-88 3s-136-2-88-3z"/>
<path d="m856 424c-9-8-16-22-16-31s42-58 92-110c81-82 96-94 123-91 25 3 30 8 33 33 3 27-9 42-91 123-52 50-101 92-110 92s-23-7-31-16z"/>
<path d="m565 390c28-12 137-12 155 0 10 7-15 10-80 9-62 0-88-3-75-9z"/>
<path d="m611 326c-8-9-11-60-9-157l3-144 30-3c47-6 55 16 55 153 0 93-4 126-16 143-17 25-46 29-63 8z"/>
</g>
</svg>