<?xml version="1.0" encoding="UTF-8"?>
<svg width="225pt" height="225pt" version="1.0" viewBox="0 0 225 225" xmlns="http://www.w3.org/2000/svg">
<g transform="translate(0 225) scale(.1 -.1)" fill="#256aff">
<path d="m838 1960c-79-24-118-84-118-179v-61h-67c-121-1-175-23-220-90l-23-33v-594c0-668-3-641 73-691l41-27h446 446l41 27c52 34 73 80 73 157v61h68c120 1 174 23 220 90l22 33v594c0 668 3 641-73 691l-41 27-430 2c-237 1-443-2-458-7zm876-54c18-7 42-26 54-41l22-28v-589-590l-68-68h-442-442l-68 68v590c0 589 0 589 22 617 42 53 50 54 486 55 320 0 409-3 436-14zm-994-750v-503l23-33c29-44 65-69 113-80 21-5 171-10 332-10h292v-59c0-45-5-65-22-86-42-54-53-55-488-55s-446 1-488 55l-22 28v589 590l34 34c34 34 34 34 130 34h96v-504z"/>
</g>
</svg>