<?xml version="1.0" encoding="UTF-8"?>
<svg width="225pt" height="225pt" version="1.0" viewBox="0 0 225 225" xmlns="http://www.w3.org/2000/svg">
<g transform="translate(0 225) scale(.1 -.1)" fill="#256aff">
<path d="m1e3 2127v-123l-77-18c-320-74-576-335-648-661l-17-75h-129-129v-125-125h133 133l13-62c63-307 345-585 659-649l62-13v-138-138h125 125v138 138l63 13c312 64 595 342 658 649l13 62h133 133v125 125h-129-129l-11 53c-68 320-288 567-591 665-36 12-82 24-102 28l-38 6v124 124h-125-125v-123zm304-297c196-50 370-192 460-374 56-113 71-183 70-326 0-107-4-136-27-205-15-44-43-109-64-145-49-83-171-207-250-253-289-167-637-124-868 108-91 91-144 175-182 290-24 71-27 96-27 215 0 122 2 143 27 215 68 194 194 338 376 430 131 66 332 84 485 45z"/>
<path d="m1009 1586c-127-36-246-135-300-251-142-304 81-655 416-655 334 0 558 352 416 655-91 195-328 307-532 251z"/>
</g>
</svg>
