<?xml version="1.0" encoding="UTF-8"?>
<svg width="228pt" height="225pt" viewBox="0 0 228 225" xmlns="http://www.w3.org/2000/svg">
<g transform="translate(0 225) scale(.1 -.1)" fill="#ec0400">
<path d="m880 2219c-55-25-115-81-143-134l-21-40-5-70-6-70-195-5c-107-3-203-9-213-14-20-9-26-30-29-101l-3-50-43-3-42-3v-84-84l83-3 82-3 10-1370 10-15c5-8 13-19 18-25 4-5 17-24 27-42l19-32 53-30 53-31h603 603l32 13c48 21 95 65 119 111 11 22 25 43 29 47l9 5 2 685 3 684 83 3 82 3v84 84l-37 3-38 3-10 124-36 36-394 10-7 62c-13 118-68 202-163 247l-56 26h-217-217l-45-21zm457-175c40-31 65-76 61-112l-3-27h-255-255l2 39c3 48 24 81 66 106l32 20h159 159l34-26zm411-1148 2-660-64-66h-543-542l-36 31-35 31v657c0 362 3 661 7 664 3 4 277 6 607 5l601-3 3-659z"/>
<path d="m710 865v-515h85 85v515 515h-85-85v-515z"/>
<path d="m1050 865v-515h90 90v515 515h-90-90v-515z"/>
<path d="m1410 865v-515h80 80v515 515h-80-80v-515z"/>
</g>
</svg>
