<?xml version="1.0" encoding="UTF-8"?>
<svg width="32pt" height="32pt" version="1.0" viewBox="0 0 512 512" xmlns="http://www.w3.org/2000/svg">
<g transform="translate(0 512) scale(.1 -.1)" fill="#7B7910">
<path d="m2330 5106c-239-32-408-83-625-192-383-191-668-476-859-859-85-170-127-288-162-450-102-484-17-988 236-1398 90-146 1524-2160 1553-2181 40-29 134-29 174 0 30 22 1488 2073 1566 2203 203 337 297 762 257 1162-24 232-86 444-196 664-151 305-365 550-643 736-232 156-477 254-766 304-125 22-404 28-535 11zm365-1281c88-18 215-82 284-142 230-201 287-540 134-803-137-235-420-362-684-306-410 87-627 538-439 912 132 261 418 399 705 339z"/>
</g>
</svg>