<?xml version="1.0" encoding="UTF-8"?>
<svg width="512pt" height="512pt" version="1.0" viewBox="0 0 512 512" xmlns="http://www.w3.org/2000/svg">
<g transform="translate(0 512) scale(.1 -.1)">
<path d="m2410 5109c-249-42-481-186-632-395-81-111-156-305-171-444l-5-45 921-995c507-547 926-995 931-995 13 0 35 68 51 164 22 124 22 1798 0 1922-17 102-43 178-91 272-137 271-393 460-693 512-92 16-225 18-311 4z"/>
<path d="m495 4866c-67-29-105-106-91-181 8-43-28-1 645-728l546-590 6-481c6-547 6-552 95-735 238-496 827-693 1310-438l81 43 77-82c42-45 76-87 76-92 0-25-182-120-308-161-136-44-215-56-372-56s-236 12-372 56c-179 58-336 155-474 293-171 172-275 363-331 608-13 57-18 148-22 425-6 335-7 353-27 379-39 53-71 69-134 69s-95-16-134-69c-20-27-21-39-21-384 0-392 5-436 66-636 164-533 633-945 1187-1042l102-17v-363-363l-489-3c-477-3-490-4-517-24-53-39-69-71-69-134s16-95 69-134c27-21 32-21 1166-21s1139 0 1166 21c53 39 69 71 69 134s-16 95-69 134c-27 20-40 21-517 24l-489 3v363 363l103 17c196 35 404 117 571 226 66 43 82 50 90 38 6-8 231-251 499-540 522-564 514-556 600-545 99 13 163 123 126 215-20 48-4046 4392-4086 4409-40 16-89 16-128-1z"/>
<path d="m3855 3186c-37-17-70-52-84-89-7-18-11-138-11-320-1-378-16-494-92-675l-30-72 68-76c38-41 90-98 115-126l46-51 51 104c66 134 106 251 134 391 21 105 23 138 23 470 0 344-1 357-21 384-11 15-32 37-46 47-34 25-113 32-153 13z"/>
</g>
</svg>
