<?xml version="1.0" encoding="UTF-8"?>
<svg width="512pt" height="512pt" version="1.0" viewBox="0 0 512 512" xmlns="http://www.w3.org/2000/svg">
<g transform="translate(0 512) scale(.1 -.1)" fill="#256aff">
<path d="m2480 4464c-45-20-87-59-111-106-18-36-19-74-19-1083 0-575-3-1045-8-1045-4 0-117 111-252 246s-262 254-282 265c-53 27-133 25-189-4-64-34-102-93-107-166-8-111-20-95 467-584 312-313 459-454 490-469 57-27 133-28 186 0 24 12 221 202 491 474 418 420 452 457 464 501 46 172-134 323-295 248-25-12-129-109-285-265-135-135-248-246-252-246-5 0-8 470-8 1045 0 1009-1 1047-19 1083-53 102-172 149-271 106z"/>
<path d="m782 1909c-46-14-118-88-131-135-7-25-11-202-11-494s4-469 11-494c14-50 82-118 135-134 60-18 3488-18 3548 0 53 16 118 81 134 134 17 59 17 929 0 988-17 57-82 119-141 135-95 27-195-13-244-97l-28-47-3-347-3-348h-1489-1489l-3 348-3 347-28 47c-49 84-160 126-255 97z"/>
</g>
</svg>