<?xml version="1.0" encoding="UTF-8"?>
<!DOCTYPE svg  PUBLIC '-//W3C//DTD SVG 1.1//EN'  'http://www.w3.org/Graphics/SVG/1.1/DTD/svg11.dtd'>
<svg clip-rule="evenodd" fill-rule="evenodd" image-rendering="optimizeQuality" shape-rendering="geometricPrecision" text-rendering="geometricPrecision" version="1.1" viewBox="0 0 640 640" xmlns="http://www.w3.org/2000/svg">
<path d="m-0.5-0.5h316c-7.846 2.3426-13.346 7.3426-16.5 15-1.607 16.613-1.941 33.28-1 50 0.528 13.357 7.361 20.69 20.5 22 13.286-0.118 20.786-6.7846 22.5-20 0.944-17.72 0.611-35.386-1-53-3.67-7.5161-9.503-12.183-17.5-14h317v640h-162c22.163-0.832 44.496-1.332 67-1.5 11.589-6.383 16.089-16.217 13.5-29.5 0.842-31.348 0.509-62.682-1-94-11.755-35.24-36.255-52.24-73.5-51 0.158-61.005-0.342-122-1.5-183-0.311-6.374-0.977-12.707-2-19-0.5 75.333-0.667 150.67-0.5 226h-77c7.852-2.349 13.352-7.349 16.5-15 0.667-4.333 0.667-8.667 0-13-10.468-37.736-21.135-75.402-32-113-5.679-23.727-10.845-47.561-15.5-71.5 0.333-0.5 0.667-1 1-1.5 5.02 1.595 9.853 3.595 14.5 6 0.333 18.667 0.667 37.333 1 56 6.651 14.134 16.485 16.801 29.5 8 2.274-2.213 3.774-4.879 4.5-8 1.279-22.655 1.612-45.322 1-68-1.525-5.878-4.692-10.711-9.5-14.5-24.564-13.855-50.898-21.855-79-24 15.484-6.797 22.317-18.63 20.5-35.5-6.538-19.852-20.038-27.685-40.5-23.5-19.838 10.496-25.005 25.996-15.5 46.5 7.476 10.32 17.643 15.153 30.5 14.5-8.974 3.412-16.474 8.912-22.5 16.5-10.447 13.394-20.281 27.227-29.5 41.5-16.667 0.333-33.333 0.667-50 1-13.26 7.768-15.593 18.101-7 31 2.626 2.146 5.626 3.479 9 4 20 0.667 40 0.667 60 0 3.161-1.413 6.161-3.08 9-5 4.214-4.546 8.047-9.379 11.5-14.5 3.308 17.039 6.808 34.039 10.5 51-9.886 8.957-20.219 17.457-31 25.5-10.28 24.169-19.78 48.669-28.5 73.5-3.049 12.736 1.451 21.569 13.5 26.5 11.256 1.789 19.422-2.377 24.5-12.5 7.68-20.378 15.346-40.711 23-61 10.689-8.857 21.522-17.523 32.5-26 9.138 30.55 17.972 61.217 26.5 92 3.162 6.336 7.996 10.669 14.5 13h-236c0.167-75.334 0-150.67-0.5-226-1.023 6.293-1.689 12.626-2 19-1.124 60.995-1.624 122-1.5 183-37.658-1.165-62.158 16.169-73.5 52-1.9915 36.334-1.9915 72.667 0 109 2.4148 6.083 6.5815 10.583 12.5 13.5 17.172 0.168 34.172 0.668 51 1.5h-146v-640z" fill="#fefefe"/>
<path d="m315.5-0.5h7c7.997 1.8173 13.83 6.4839 17.5 14 1.611 17.614 1.944 35.28 1 53-1.714 13.215-9.214 19.882-22.5 20-13.139-1.3095-19.972-8.6428-20.5-22-0.941-16.72-0.607-33.387 1-50 3.154-7.6574 8.654-12.657 16.5-15z" fill="#ff0502"/>
<path d="m102.5 87.5c6.973-0.9642 13.307 0.5358 19 4.5 13.167 11.833 25.667 24.333 37.5 37.5 4.656 14.354 0.156 24.854-13.5 31.5-5.597 1.091-10.93 0.424-16-2-13.8-11.466-26.633-23.966-38.5-37.5-7.7259-15.501-3.8925-26.834 11.5-34z" fill="#ff0402"/>
<path d="m524.5 87.5c21.343-0.8279 29.843 9.1721 25.5 30-1.271 2.933-2.938 5.599-5 8l-28.5 28.5c-8.7 8.309-18.366 9.642-29 4-11.139-9.677-12.639-20.51-4.5-32.5 12.854-14.033 26.687-26.7 41.5-38z" fill="#ff0502"/>
<path d="m299.5 131.5c45.375-3.663 86.041 8.17 122 35.5-68 0.667-136 0.667-204 0 24.38-18.691 51.714-30.524 82-35.5z" fill="#ff0301"/>
<path d="m235.5 178.5c1.175-0.219 2.175 0.114 3 1-1.552 1.298-2.552 0.965-3-1z" fill="#ed2219"/>
<path d="m241.5 178.5c1.837 0.139 2.17 0.806 1 2-0.798-0.457-1.131-1.124-1-2z" fill="#eb0400"/>
<path d="m262.5 178.5c1.175-0.219 2.175 0.114 3 1-1.552 1.298-2.552 0.965-3-1z" fill="#ed2219"/>
<path d="m268.5 178.5c1.837 0.139 2.17 0.806 1 2-0.798-0.457-1.131-1.124-1-2z" fill="#eb0400"/>
<path d="m219.5 178.5h3c-1.301 2.172-2.301 4.505-3 7h-3c0.188-2.706 1.188-5.039 3-7z" fill="#ef2f24"/>
<path d="m230.5 178.5h3v3h-3v-3z" fill="#f9796a"/>
<path d="m273.5 179.5c3.174 0.452 3.507 1.452 1 3-0.886-0.825-1.219-1.825-1-3z" fill="#ee251d"/>
<path d="m224.5 183.5c10.062-0.782 13.562 3.552 10.5 13-5.814 5.705-10.814 5.038-15-2-0.71 1.473-1.876 2.14-3.5 2v-8c1.478 0.262 2.811-0.071 4-1 1.049-1.716 2.382-3.049 4-4z" fill="#ed180e"/>
<path d="m243.5 183.5c8.661-1.171 12.494 2.496 11.5 11-4.908 7.486-10.241 7.819-16 1-1.526-5.261-0.026-9.261 4.5-12z" fill="#ec140a"/>
<path d="m273.5 188.5c1.141 2.049 1.141 4.049 0 6-3.568 6.625-8.402 7.625-14.5 3-3.553-10.074-0.053-14.574 10.5-13.5 1.884 1.049 3.218 2.549 4 4.5z" fill="#ec140a"/>
<path d="m273.5 188.5c1.542 0.801 3.208 1.134 5 1 0.306 2.885-0.027 5.552-1 8-0.667-9.333-1.333-9.333-2 0-0.667-1-1.333-2-2-3 1.141-1.951 1.141-3.951 0-6z" fill="#fbaeaa"/>
<path d="m277.5 197.5h-2c0.667-9.333 1.333-9.333 2 0z" fill="#eb0400"/>
<path d="m216.5 198.5h3v9h-3v-9z" fill="#f24b40"/>
<path d="m274.5 200.5h3v8h-3v-8z" fill="#f03827"/>
<path d="m225.5 202.5c14.337-0.167 28.671 0 43 0.5l2.5 2.5c0.667 3.333 0.667 6.667 0 10-0.833 1.5-2 2.667-3.5 3.5-13.667 0.667-27.333 0.667-41 0-4.939-5.224-5.273-10.724-1-16.5z" fill="#ec150a"/>
<path d="m274.5 211.5h3v8h-3v-8z" fill="#f03625"/>
<path d="m216.5 215.5c1.175-0.219 2.175 0.114 3 1-1.552 1.298-2.552 0.965-3-1z" fill="#ed231a"/>
<path d="m216.5 220.5h3v3h-3v-3z" fill="#f03a33"/>
<path d="m226.5 222.5c13.671-0.167 27.337 0 41 0.5 1.833 0.5 3 1.667 3.5 3.5 0.667 3 0.667 6 0 9-0.5 1.833-1.667 3-3.5 3.5-14 0.667-28 0.667-42 0-2.86-3.681-3.693-7.848-2.5-12.5 0.69-1.85 1.856-3.184 3.5-4z" fill="#ec0b03"/>
<path d="m216.5 225.5h3v3h-3v-3z" fill="#f45649"/>
<path d="m274.5 227.5h3v3h-3v-3z" fill="#f2463b"/>
<path d="m402.5 487.5h-7c-6.504-2.331-11.338-6.664-14.5-13-8.528-30.783-17.362-61.45-26.5-92-10.978 8.477-21.811 17.143-32.5 26-7.654 20.289-15.32 40.622-23 61-5.078 10.123-13.244 14.289-24.5 12.5-12.049-4.931-16.549-13.764-13.5-26.5 8.72-24.831 18.22-49.331 28.5-73.5 10.781-8.043 21.114-16.543 31-25.5-3.692-16.961-7.192-33.961-10.5-51-3.453 5.121-7.286 9.954-11.5 14.5-2.839 1.92-5.839 3.587-9 5-20 0.667-40 0.667-60 0-3.374-0.521-6.374-1.854-9-4-8.593-12.899-6.26-23.232 7-31 16.667-0.333 33.333-0.667 50-1 9.219-14.273 19.053-28.106 29.5-41.5 6.026-7.588 13.526-13.088 22.5-16.5-12.857 0.653-23.024-4.18-30.5-14.5-9.505-20.504-4.338-36.004 15.5-46.5 20.462-4.185 33.962 3.648 40.5 23.5 1.817 16.87-5.016 28.703-20.5 35.5 28.102 2.145 54.436 10.145 79 24 4.808 3.789 7.975 8.622 9.5 14.5 0.612 22.678 0.279 45.345-1 68-0.726 3.121-2.226 5.787-4.5 8-13.015 8.801-22.849 6.134-29.5-8-0.333-18.667-0.667-37.333-1-56-4.647-2.405-9.48-4.405-14.5-6-0.333 0.5-0.667 1-1 1.5 4.655 23.939 9.821 47.773 15.5 71.5 10.865 37.598 21.532 75.264 32 113 0.667 4.333 0.667 8.667 0 13-3.148 7.651-8.648 12.651-16.5 15z" fill="#276aff"/>
<path d="m274.5 232.5h3v3h-3v-3z" fill="#f24734"/>
<path d="m274.5 238.5h3v3h-3v-3z" fill="#f35a4f"/>
<path d="m225.5 243.5c14.337-0.167 28.671 0 43 0.5l2.5 2.5c1.534 5.34 0.367 9.84-3.5 13.5-13.667 0.667-27.333 0.667-41 0-4.939-5.224-5.273-10.724-1-16.5z" fill="#ec1509"/>
<path d="m216.5 247.5h3v3h-3v-3z" fill="#f03c35"/>
<path d="m216.5 252.5h3v3h-3v-3z" fill="#f35246"/>
<path d="m216.5 258.5h3v3h-3v-3z" fill="#f25147"/>
<path d="m274.5 259.5h3v3h-3v-3z" fill="#f24734"/>
<path d="m395.5 487.5h7 77c-0.167-75.334 0-150.67 0.5-226 1.023 6.293 1.689 12.626 2 19 1.158 60.995 1.658 122 1.5 183 37.245-1.24 61.745 15.76 73.5 51 1.509 31.318 1.842 62.652 1 94 2.589 13.283-1.911 23.117-13.5 29.5-22.504 0.168-44.837 0.668-67 1.5h-332c-16.828-0.832-33.828-1.332-51-1.5-5.9185-2.917-10.085-7.417-12.5-13.5-1.9915-36.333-1.9915-72.666 0-109 11.342-35.831 35.842-53.165 73.5-52-0.124-61.005 0.376-122 1.5-183 0.311-6.374 0.977-12.707 2-19 0.5 75.333 0.667 150.67 0.5 226h236z" fill="#ff0804"/>
<path d="m273.5 267.5v6c-3.568 6.625-8.402 7.625-14.5 3-3.632-10.036-0.132-14.536 10.5-13.5 2.144 0.792 3.477 2.292 4 4.5z" fill="#ed180c"/>
<path d="m243.5 262.5c8.661-1.171 12.494 2.496 11.5 11-5.419 7.91-10.752 7.91-16 0-1.224-4.874 0.276-8.541 4.5-11z" fill="#ec140a"/>
<path d="m224.5 262.5c8.661-1.171 12.494 2.496 11.5 11-5.333 8-10.667 8-16 0-0.49 1.293-0.657 2.627-0.5 4h-3v-8c1.175 0.219 2.175-0.114 3-1 0.997-2.655 2.664-4.655 5-6z" fill="#ed180e"/>
<path d="m273.5 273.5v-6c0.967-1.306 2.301-1.973 4-2v3c-4 0.667-4 1.333 0 2v3h-4z" fill="#f5655a"/>
<path d="m218.5 279.5c2.264 0.719 4.597 1.052 7 1v3c-3.722 0.82-6.055-0.513-7-4z" fill="#ed2118"/>
<path d="m266.5 280.5c2.747-0.313 5.414 0.02 8 1-0.209 0.586-0.543 1.086-1 1.5-2.31 0.497-4.643 0.663-7 0.5v-3z" fill="#ed2019"/>
<path d="m255.5 280.5h8v3h-8v-3z" fill="#ed1d18"/>
<path d="m228.5 280.5h3v3h-3v-3z" fill="#ef332c"/>
<path d="m233.5 280.5h3v3h-3v-3z" fill="#f14135"/>
<path d="m244.5 280.5h8v3h-8v-3z" fill="#ee2721"/>
<path d="m143.5 507.5c119.03-0.487 238.03 0.013 357 1.5 7.447 3.048 11.947 8.548 13.5 16.5 0.5 23.331 0.667 46.664 0.5 70h-390c-0.167-23.336 0-46.669 0.5-70 2.133-10.301 8.299-16.301 18.5-18z" fill="#fffefe"/>
</svg>
