<?xml version="1.0" encoding="UTF-8"?>
<svg width="980pt" height="980pt" version="1.0" viewBox="0 0 980 980" xmlns="http://www.w3.org/2000/svg">
<g transform="translate(0 980) scale(.1 -.1)">
<path d="m2866 9764c-97-30-168-94-215-194l-26-55 2-833 2-834-880 874c-484 480-905 891-937 913-179 126-429 107-594-44-160-147-202-377-105-581 28-60 100-134 921-957l890-892-800-3c-794-3-799-3-857-25-122-46-209-138-247-261-28-90-29-342-2-430 36-113 128-212 234-249 57-19 52-19 2411-8l709 3 53 27c30 14 74 48 99 76 83 93 77-43 71 1655-3 830-8 1529-11 1554-17 134-129 241-284 270-83 16-376 11-434-6z"/>
<path d="m6482 9770c-120-25-220-100-265-198l-22-47-6-1400c-4-770-4-1403 0-1408 4-4 3-40-2-80-27-223 28-354 178-423l51-24 855-4c2151-12 2209-12 2269 8 113 36 203 128 240 245 29 91 29 340 0 433-25 83-85 165-153 212-107 74-59 70-965 76l-814 5 880 872c498 494 894 894 912 923 50 77 72 146 77 240 20 331-274 580-596 505-139-33-30 69-1592-1483l-386-384 1 843 1 844-34 63c-41 75-94 125-170 161-53 25-65 26-236 28-99 1-199-2-223-7z"/>
<path d="m278 3587c-104-40-182-110-227-206-25-55-26-61-26-256 0-199 0-200 29-262 35-77 113-154 193-191l58-26 505-7c278-4 647-7 820-8l315-2-895-892c-965-961-938-931-975-1072-43-168 13-357 144-477 160-146 386-169 580-57 38 22 310 287 947 922l894 890-2-819-3-819 27-57c35-75 95-138 165-174l58-29h210c176 0 218 3 261 18 116 40 191 113 219 211 12 43 15 287 20 1491 3 792 8 1454 11 1470 8 44-21 167-49 212-32 51-79 90-143 120l-51 23-1524 5c-1279 5-1530 3-1561-8z"/>
<path d="m6432 3588c-92-15-177-80-219-166-33-68-31 133-23-1772l5-1375 24-52c13-30 45-72 72-98 95-89 178-109 435-103 172 3 181 4 236 31 74 36 150 119 178 194 21 57 21 60 18 865-2 445 0 807 4 806 4-2 409-401 900-889 969-960 936-930 1076-960 77-16 203-6 272 21 118 45 234 161 281 280 30 78 37 226 14 305-38 134-14 107-962 1056l-894 896 377 6c207 4 567 7 798 7 453 0 483 3 569 53 59 35 124 108 155 175 26 56 27 61 27 257v200l-33 67c-37 75-103 142-179 179l-48 24h-1521c-837 0-1540-3-1562-7z"/>
</g>
</svg>
