<?xml version="1.0" encoding="UTF-8"?>
<svg width="376pt" height="376pt" version="1.0" viewBox="0 0 376 376" xmlns="http://www.w3.org/2000/svg">
<g transform="translate(0 376) scale(.1 -.1)" fill="#fff">
<path d="m1833 3476-28-24v-142-142l28-24c15-13 37-24 47-24s32 11 47 24l28 24v142 142l-28 24c-15 13-37 24-47 24s-32-11-47-24z"/>
<path d="m961 3354c-12-15-21-36-21-46 0-20 80-162 127-225 19-26 31-33 58-33 41 0 75 32 75 69 0 26-96 197-133 239-29 32-79 30-106-4z"/>
<path d="m2693 3358c-38-43-133-214-133-241 0-57 85-92 122-49 29 32 138 224 138 242 0 9-9 29-21 44-27 34-77 36-106 4z"/>
<path d="m1224 2719c-15-17-20-40-22-110l-4-89h682 682l-4 89c-5 145 70 131-678 131-635 0-637 0-656-21z"/>
<path d="m1279 2353c5-10 49-76 98-148l89-130h414 414l89 130c49 72 93 138 98 148 9 16-22 17-601 17s-610-1-601-17z"/>
<path d="m1504 1907c-2-7-3-355-2-772 3-742 3-761 23-795 12-21 39-44 65-57 42-22 55-23 290-23s248 1 290 23c26 13 53 36 65 57 20 34 20 50 20 805v770l-373 3c-298 2-374 0-378-11zm416-227c46-25 51-164 7-195-53-37-112-8-122 59-16 108 41 175 115 136zm0-450c42-23 51-150 13-192-21-24-84-24-106 0-35 39-33 146 4 183 21 21 59 25 89 9z"/>
</g>
</svg>