<?xml version="1.0" encoding="UTF-8"?>
<svg width="376pt" height="376pt" version="1.0" viewBox="0 0 376 376" xmlns="http://www.w3.org/2000/svg">
<g transform="translate(0 376) scale(.1 -.1)" fill="#fff">
<path d="m842 2918-21-24 2095-2095 22 23 21 24-2095 2095-22-23z"/>
<path d="m1227 2722c-9-10-20-33-23-51-6-30-2-38 52-92l58-59h624 624l-4 89c-5 145 70 131-678 131-603 0-638-1-653-18z"/>
<path d="m1279 2353c5-10 49-76 98-148l89-130 74-3 75-3-150 151c-106 106-156 150-173 150-19 0-21-3-13-17z"/>
<path d="m1615 2220 150-150 265 2 264 3 89 130c49 72 93 138 98 148 9 16-18 17-503 17h-513l150-150z"/>
<path d="m1504 1907c-2-7-3-355-2-772 3-742 3-761 23-795 12-21 39-44 65-57 42-22 55-23 290-23s248 1 290 23c26 13 53 36 65 57 19 34 20 54 23 560l3 524-496 496h-128c-95 0-129-3-133-13zm416-227c46-25 51-164 7-195-53-37-112-8-122 59-16 108 41 175 115 136zm0-450c42-23 51-150 13-192-21-24-84-24-106 0-35 39-33 146 4 183 21 21 59 25 89 9z"/>
<path d="m2085 1750 170-170 3 157c1 86 0 163-2 170-4 10-45 13-173 13h-168l170-170z"/>
</g>
</svg>