<?xml version="1.0" encoding="UTF-8"?>
<svg width="512pt" height="512pt" version="1.0" viewBox="0 0 512 512" xmlns="http://www.w3.org/2000/svg">
<g transform="translate(0 512) scale(.1 -.1)" fill="#fff">
<path d="m3002 4838c-47-34-1710-2087-1718-2120-9-42 4-85 36-116 20-19 191-92 619-262 465-185 590-238 585-250-3-8-140-391-306-850-334-930-322-885-254-947 30-28 43-33 85-33 38 0 56 6 75 22 55 50 1706 2094 1712 2120 9 42-4 85-35 116-21 20-190 91-620 262-465 185-590 238-585 250 128 342 604 1689 604 1712 0 38-29 86-62 104-37 21-101 17-136-8z"/>
</g>
</svg>