<?xml version="1.0" encoding="UTF-8"?>
<svg width="512pt" height="512pt" version="1.0" viewBox="0 0 512 512" xmlns="http://www.w3.org/2000/svg">
<g transform="translate(0 512) scale(.1 -.1)" fill="#fff">
<path d="m3002 4838c-18-13-263-308-546-657l-514-634 76-103c43-57 80-103 84-104 4 0 139 162 300 359 161 198 294 359 295 357 2-2-79-234-180-517l-184-514 196-260 486-193c267-107 485-197 485-200 0-4-79-103-175-221-117-142-172-217-166-225 4-6 40-52 78-103l70-91 259 318c142 176 263 331 267 345 13 39 0 91-32 122-21 21-185 90-620 263-465 185-590 238-585 250 128 342 604 1689 604 1712 0 38-29 86-62 104-37 21-101 17-136-8z"/>
<path d="m1375 4048c-27-22-50-46-49-52 1-10 301-414 1438-1933 133-177 273-365 311-416 39-51 165-220 281-374l211-280 60 52 61 52-32 39c-46 56-1256 1661-1289 1710-15 22-35 49-45 60-32 34-272 353-272 361-1 5-36 53-80 108s-181 235-306 400-230 303-233 307c-3 3-28-12-56-34z"/>
<path d="m1514 3020c-120-148-223-281-227-295-13-39 0-91 32-122 21-21 187-91 620-263 465-185 590-238 585-250-3-8-140-391-306-850-334-930-322-885-254-947 29-27 44-33 80-33 24 0 52 3 61 6 9 4 230 270 492 593 262 322 482 593 489 602 12 13 4 29-62 117-53 71-80 99-88 93-6-5-121-144-256-310-134-165-246-298-247-297-2 2 67 200 153 441 129 361 154 441 146 459-6 11-89 124-184 251l-173 230-372 148c-205 82-373 152-373 156 1 3 61 80 135 170l134 165-23 30c-12 17-47 64-77 104-29 39-56 72-60 72-3 0-105-121-225-270z"/>
</g>
</svg>