<?xml version="1.0" encoding="UTF-8"?>
<svg width="980pt" height="980pt" version="1.0" viewBox="0 0 980 980" xmlns="http://www.w3.org/2000/svg">
<g transform="translate(0 980) scale(.1 -.1)" fill="#256aff">
<path d="m2399 9796c-3-3-479-6-1059-7-1157-2-1104 1-1197-63-105-72-150-182-139-341 3-49 7-727 9-1505 3-1051 7-1424 16-1452 30-94 113-177 218-220 55-21 71-23 293-23h235l57 28c77 38 144 107 182 187l31 65-3 785-4 785 209-206c333-329 1436-1412 1580-1552 108-105 144-133 205-162 153-73 301-71 453 4 260 129 360 445 222 705-27 51-133 161-672 696-352 349-777 770-945 937l-305 303h685c377 0 723 5 770 10 194 22 326 137 375 327 20 75 20 295 0 387-26 124-106 224-223 279l-67 32-460 3c-254 2-463 1-466-2z"/>
<path d="m6476 9789c-106-26-220-117-265-214-35-75-43-135-39-317l3-173 36-75c61-128 171-214 308-240 33-6 327-10 777-10 398 0 724-3 724-7 0-5-417-420-926-923-586-580-940-937-965-974-134-200-104-474 71-646 161-159 401-194 604-88 64 34 226 191 1453 1412 282 281 514 508 515 506 2-3 1-340-2-750-4-441-3-767 3-799 20-120 101-227 209-277 61-28 68-29 251-32 148-3 205 0 262 13 89 20 177 73 223 136 66 90 62 2 69 1551 3 774 6 1461 7 1525 1 91-3 130-17 170-25 72-85 136-164 175l-65 32-677 2c-372 2-1054 5-1516 8-515 3-855 1-879-5z"/>
<path d="m3130 3724c-100-27-161-64-265-163-112-108-1209-1185-1583-1555l-243-241 6 1550-27 58c-55 118-131 183-248 213-97 25-432 16-512-13-74-27-142-75-179-126-63-87-60-5-66-1542-3-770-6-1454-7-1520-1-110 1-125 25-175 39-82 102-141 188-174 39-15 128-17 925-21 484-2 1169-5 1521-7 599-3 643-2 693 15 103 36 203 133 244 237 30 79 38 346 13 450-32 131-120 233-243 282-54 21-75 22-452 29-217 4-564 7-770 8l-375 1 360 358c198 197 626 621 950 943 638 633 637 632 670 770 77 328-168 641-500 638-38 0-95-7-125-15z"/>
<path d="m6432 3724c-341-91-495-486-304-779 26-41 342-360 975-985l936-925-132-6c-73-4-402-7-732-8-498-1-611-4-658-16-126-33-208-99-264-213l-38-76v-211-210l33-67c41-84 128-167 209-200l58-23 1205 4c663 2 1345 5 1515 5l310 1 67 33c120 59 182 160 182 297-1 703-7 1864-12 2350l-7 620-26 55c-54 113-158 181-308 201-46 6-154 10-241 7-153-4-158-4-223-36-104-52-185-156-206-266-4-23-6-374-3-781l4-740-514 510c-1282 1274-1390 1379-1454 1413-116 60-255 78-372 46z"/>
</g>
</svg>
