<?xml version="1.0" encoding="UTF-8"?>
<svg width="512pt" height="512pt" version="1.0" viewBox="0 0 512 512" xmlns="http://www.w3.org/2000/svg">
<g transform="translate(0 512) scale(.1 -.1)" fill="#256aff">
<path d="m2421 4700c-40-11-95-32-122-48-26-15-425-334-886-708-668-543-843-690-863-725l-25-44v-1300-1300l22-40c25-47 64-85 113-111 33-18 69-19 640-19 601 0 605 0 645 22 52 28 89 68 114 123 20 44 21 62 21 848v802h480 480v-802c0-786 1-804 21-848 25-55 62-95 114-123 40-22 44-22 645-22 603 0 605 0 646 22 52 28 97 79 118 134 15 40 16 155 14 1329l-3 1285-25 44c-20 35-190 178-850 715-454 368-845 683-868 699-114 77-292 105-431 67zm275-256c29-16 416-324 859-684l805-655v-1232-1233h-540-540v796c0 587-3 807-12 836-6 22-31 62-55 88-73 82-61 80-654 80-581 0-572 1-646-72-76-75-73-34-73-930v-798h-540-540v1233 1232l776 630c913 742 873 711 932 730 70 22 162 14 228-21z"/>
</g>
</svg>