<?xml version="1.0" encoding="UTF-8"?>
<svg width="981pt" height="981pt" version="1.0" viewBox="0 0 981 981" xmlns="http://www.w3.org/2000/svg">
<g transform="translate(0 981) scale(.1 -.1)" fill="#256aff">
<path d="m6258 9800c-15-4-42-18-60-31-127-88-2159-1567-2181-1588-97-88-97-254 0-342 41-38 2171-1582 2213-1605 24-12 56-18 101-19 56 0 73 4 114 30 27 17 63 50 80 74l30 43 3 474c1 261 5 474 7 474 9 0 141-83 220-139 212-148 475-388 633-576 421-500 675-1078 763-1731 26-191 31-580 10-764-67-600-278-1151-618-1618-266-365-629-693-1017-921-778-457-1720-576-2601-329-401 112-830 332-1165 598-208 166-483 459-649 693-423 596-640 1346-601 2072 32 583 190 1101 485 1586 149 246 286 414 550 674 216 214 247 256 280 382 18 67 19 181 4 255s-71 184-124 245c-54 61-150 124-237 154-136 48-332 25-455-53-78-50-282-237-416-383-435-473-744-987-945-1577-510-1492-200-3121 822-4318 601-703 1403-1199 2300-1420 320-79 614-118 956-127 642-16 1265 101 1839 347 1392 595 2385 1851 2636 3334 46 274 59 430 59 741-1 407-35 699-125 1065-240 975-820 1855-1628 2469-274 208-578 387-883 521l-98 43v547c0 595 1 581-57 650-53 64-163 95-245 70z"/>
<path d="m4680 5535c-245-39-479-158-658-336-370-366-465-919-238-1385 168-342 470-577 853-660 111-24 350-24 463 0 260 56 467 170 645 357 358 375 434 924 194 1389-236 458-746 715-1259 635z"/>
</g>
</svg>
