<?xml version="1.0" encoding="UTF-8"?>
<svg width="256pt" height="256pt" version="1.0" viewBox="0 0 256 256" xmlns="http://www.w3.org/2000/svg">
<g transform="translate(0 256) scale(.1 -.1)" fill="#256aff">
<path d="m378 2411c-152-49-281-188-323-346-23-90-22-1156 1-1236 41-138 139-261 256-318 49-24 90-35 161-44l97-11 2-203 3-202 188 204 189 205h566c617 0 655 3 752 56 113 61 200 172 243 309 22 69 22 80 22 625s0 556-22 625c-52 164-180 295-332 339-48 14-157 16-900 15-792 0-850-1-903-18zm1112-107c247-63 460-240 566-469 98-212 100-490 6-698-107-234-295-396-549-473-77-24-105-27-228-27s-151 3-230 27c-299 91-525 325-595 616-27 115-27 284 0 397 78 327 338 573 675 639 88 17 265 11 355-12z"/>
<path d="m1132 2103c-59-60-128-171-100-160 9 3 52 9 97 12l81 8v98c0 64-4 99-11 99-6 0-36-26-67-57z"/>
<path d="m1360 2061v-98l81-8c45-3 88-9 97-12 11-5 6 10-14 48-29 54-133 169-153 169-7 0-11-35-11-99z"/>
<path d="m860 2037c-63-50-139-131-168-181l-20-34 71 33c40 17 79 35 88 38 8 3 24 27 33 54 10 26 29 67 42 91 12 23 20 42 16 42s-32-19-62-43z"/>
<path d="m1651 2074c2-5 20-47 39-93s42-86 50-89 48-20 88-38l72-33-17 31c-27 47-140 165-191 200-24 17-43 27-41 22z"/>
<path d="m1175 1814c-87-11-182-27-197-35-16-9-34-89-40-184l-3-40 138-3 137-3v136c0 74-1 134-2 134-2-1-16-4-33-5z"/>
<path d="m1360 1683v-134l138 3 137 3-2 40c-2 22-8 72-14 112l-12 72-52 11c-29 6-85 14-124 19l-71 7v-133z"/>
<path d="m745 1691c-27-16-72-53-100-82l-50-54 89-3c49-2 92 1 96 5 7 8 24 163 18 163-2 0-25-13-53-29z"/>
<path d="m1776 1643c3-43 10-82 14-86s47-7 96-5l89 3-52 56c-29 31-76 68-103 83l-51 28 7-79z"/>
<path d="m609 1393c16-31 94-99 144-128l48-28-6 74c-4 41-8 80-10 87-3 8-31 12-95 12-83 0-90-1-81-17z"/>
<path d="m935 1368c20-144 28-179 43-187 24-12 140-31 190-31h42v130 130h-140-140l5-42z"/>
<path d="m1360 1280v-130h36c48 0 175 20 196 31 15 8 22 37 44 192l6 37h-141-141v-130z"/>
<path d="m1785 1398c-2-7-6-46-10-87l-6-74 48 28c50 29 128 97 144 128 9 16 2 17-81 17-64 0-92-4-95-12z"/>
<path d="m693 1102c29-49 120-145 177-187 50-37 71-45 51-21-7 8-27 49-44 91l-32 76-87 38-86 38 21-35z"/>
<path d="m1835 1109c-33-16-71-33-85-38-19-6-31-22-44-57-10-27-29-68-42-91-12-24-20-43-17-43 14 0 107 77 155 129 42 45 107 135 95 130-1 0-29-14-62-30z"/>
<path d="m1046 969c29-54 133-169 153-169 7 0 11 35 11 99v98l-72 7c-39 3-82 9-96 13l-25 6 29-54z"/>
<path d="m1443 1007-83-10v-99c0-63 4-98 11-98 6 0 36 26 67 58 59 59 124 163 100 160-7-1-50-6-95-11z"/>
</g>
</svg>