<?xml version="1.0" encoding="UTF-8"?>
<svg width="225pt" height="225pt" version="1.0" viewBox="0 0 225 225" xmlns="http://www.w3.org/2000/svg">
<g transform="translate(0 225) scale(.1 -.1)" fill="#256aff">
<path d="m1428 1996c-86-30-112-49-236-170-136-132-153-167-117-236 19-37 43-50 95-50 40 0 48 6 159 113 133 130 175 152 265 145 160-13 253-180 181-324-28-57-377-409-433-438-78-40-174-30-244 25-53 42-82 52-122 45-48-9-86-56-86-107 0-99 184-209 350-209 64 0 142 21 215 57 57 29 409 370 480 464 115 155 113 379-5 535-114 151-323 213-502 150z"/>
<path d="m890 1441c-30-10-75-28-100-41-49-25-418-382-477-463-144-196-94-494 107-627 79-53 134-71 227-77 158-11 243 28 400 181 147 142 164 175 128 246-19 38-43 50-96 50-39 0-47-6-154-110-67-65-130-118-156-130-193-87-389 116-294 306 28 57 377 409 433 438 78 40 174 30 244-25 53-42 82-52 122-45 48 9 86 56 86 107 0 32-7 47-40 82-99 108-286 155-430 108z"/>
</g>
</svg>