<?xml version="1.0" encoding="UTF-8"?>
<!DOCTYPE svg PUBLIC "-//W3C//DTD SVG 1.1//EN" "http://www.w3.org/Graphics/SVG/1.1/DTD/svg11.dtd">
<svg xmlns="http://www.w3.org/2000/svg" version="1.1" width="625px" height="625px" style="shape-rendering:geometricPrecision; text-rendering:geometricPrecision; image-rendering:optimizeQuality; fill-rule:evenodd; clip-rule:evenodd" xmlns:xlink="http://www.w3.org/1999/xlink">
<g><path style="opacity:1" fill="#fffefe" d="M -0.5,-0.5 C 207.833,-0.5 416.167,-0.5 624.5,-0.5C 624.5,43.1667 624.5,86.8333 624.5,130.5C 628.611,106.223 619.278,89.39 596.5,80C 593.833,79.3333 591.167,79.3333 588.5,80C 578.202,88.6298 568.202,97.6298 558.5,107C 525,140.5 491.5,174 458,207.5C 457.333,277.167 457.333,346.833 458,416.5C 500.5,459 543,501.5 585.5,544C 602.456,544.272 614.623,536.772 622,521.5C 623.032,513.382 623.865,505.382 624.5,497.5C 624.5,539.833 624.5,582.167 624.5,624.5C 416.167,624.5 207.833,624.5 -0.5,624.5C -0.5,416.167 -0.5,207.833 -0.5,-0.5 Z"/></g>
<g><path style="opacity:1" fill="#ec0500" d="M 62.5,78.5 C 169.834,78.3333 277.167,78.5 384.5,79C 411.74,78.2531 430.573,90.4197 441,115.5C 441.5,139.498 441.667,163.498 441.5,187.5C 360.833,187.5 280.167,187.5 199.5,187.5C 199.5,189.5 199.5,191.5 199.5,193.5C 147.044,199.732 101.378,220.566 62.5,256C 46.4797,270.344 32.313,286.177 20,303.5C 16.2195,311.248 16.8862,318.581 22,325.5C 50.1622,362.002 84.6622,390.836 125.5,412C 148.922,423.189 173.588,429.689 199.5,431.5C 199.5,436.167 199.5,440.833 199.5,445.5C 280.167,445.5 360.833,445.5 441.5,445.5C 441.871,466.195 441.371,486.861 440,507.5C 433.294,527.201 419.794,539.701 399.5,545C 282.833,545.667 166.167,545.667 49.5,545C 17.8974,539.399 2.39741,520.566 3,488.5C 2.33333,365.5 2.33333,242.5 3,119.5C 8.37939,99.5755 20.8794,86.4088 40.5,80C 48.0115,79.8288 55.3448,79.3288 62.5,78.5 Z"/></g>
<g><path style="opacity:1" fill="#ec0500" d="M 624.5,130.5 C 624.5,252.833 624.5,375.167 624.5,497.5C 623.865,505.382 623.032,513.382 622,521.5C 614.623,536.772 602.456,544.272 585.5,544C 543,501.5 500.5,459 458,416.5C 457.333,346.833 457.333,277.167 458,207.5C 491.5,174 525,140.5 558.5,107C 568.202,97.6298 578.202,88.6298 588.5,80C 591.167,79.3333 593.833,79.3333 596.5,80C 619.278,89.39 628.611,106.223 624.5,130.5 Z"/></g>
<g><path style="opacity:1" fill="#256aff" d="M 326.5,188.5 C 344.723,187.106 355.057,195.439 357.5,213.5C 356.427,225.161 350.427,232.994 339.5,237C 362.307,238.268 383.64,244.601 403.5,256C 407.194,258.687 409.694,262.187 411,266.5C 412.246,285.146 412.246,303.813 411,322.5C 408.869,329.249 404.202,332.916 397,333.5C 391.027,332.859 386.693,329.859 384,324.5C 383.833,308.823 383.333,293.156 382.5,277.5C 378.608,275.927 374.775,274.26 371,272.5C 373.707,292.7 377.707,312.7 383,332.5C 392.067,364.269 400.901,396.103 409.5,428C 406.241,442.63 397.574,447.297 383.5,442C 381.291,440.127 379.458,437.96 378,435.5C 371.121,410.307 363.787,385.307 356,360.5C 347.148,367.596 338.481,374.929 330,382.5C 323.333,399.833 316.667,417.167 310,434.5C 303.055,441.069 295.222,442.236 286.5,438C 281.048,432.972 279.215,426.806 281,419.5C 287.667,401.5 294.333,383.5 301,365.5C 302.061,362.438 303.894,359.938 306.5,358C 314.453,352.382 322.12,346.382 329.5,340C 326.034,327.007 323.201,313.841 321,300.5C 320.667,300.167 320.333,299.833 320,299.5C 316.833,303.333 313.667,307.167 310.5,311C 308.725,312.439 306.725,313.439 304.5,314C 288.5,314.667 272.5,314.667 256.5,314C 245.224,310.946 241.724,303.779 246,292.5C 248.264,289.567 251.098,287.4 254.5,286C 267.865,285.788 281.198,285.622 294.5,285.5C 303.398,269.761 314.398,255.594 327.5,243C 329.67,241.414 332.004,240.08 334.5,239C 316.796,236.969 307.963,227.136 308,209.5C 310.141,198.864 316.308,191.864 326.5,188.5 Z"/></g>
<g><path style="opacity:1" fill="#eb0400" d="M 247.5,196.5 C 248.756,196.461 249.756,196.961 250.5,198C 248.697,198.637 247.364,199.803 246.5,201.5C 245.348,199.603 245.681,197.936 247.5,196.5 Z"/></g>
<g><path style="opacity:1" fill="#eb0400" d="M 256.5,196.5 C 258.337,196.639 258.67,197.306 257.5,198.5C 256.702,198.043 256.369,197.376 256.5,196.5 Z"/></g>
<g><path style="opacity:1" fill="#ef3524" d="M 260.5,196.5 C 261.675,196.281 262.675,196.614 263.5,197.5C 261.948,198.798 260.948,198.465 260.5,196.5 Z"/></g>
<g><path style="opacity:1" fill="#eb0400" d="M 265.5,196.5 C 267.337,196.639 267.67,197.306 266.5,198.5C 265.702,198.043 265.369,197.376 265.5,196.5 Z"/></g>
<g><path style="opacity:1" fill="#eb0400" d="M 282.5,196.5 C 284.337,196.639 284.67,197.306 283.5,198.5C 282.702,198.043 282.369,197.376 282.5,196.5 Z"/></g>
<g><path style="opacity:1" fill="#eb0400" d="M 286.5,196.5 C 287.675,196.281 288.675,196.614 289.5,197.5C 287.948,198.798 286.948,198.465 286.5,196.5 Z"/></g>
<g><path style="opacity:1" fill="#ec140c" d="M 291.5,196.5 C 293.76,197.238 293.927,198.238 292,199.5C 290.272,198.648 290.105,197.648 291.5,196.5 Z"/></g>
<g><path style="opacity:1" fill="#ec0601" d="M 251.5,200.5 C 257.093,199.451 260.426,201.617 261.5,207C 260.685,213.04 257.352,215.04 251.5,213C 249.741,211.992 248.574,210.492 248,208.5C 247.692,209.308 247.192,209.975 246.5,210.5C 245.167,208.5 245.167,206.5 246.5,204.5C 247.086,204.709 247.586,205.043 248,205.5C 248.697,203.416 249.864,201.749 251.5,200.5 Z"/></g>
<g><path style="opacity:1" fill="#ec0d03" d="M 266.5,200.5 C 272.632,198.977 275.965,201.31 276.5,207.5C 275.422,213.095 272.088,214.928 266.5,213C 261.272,208.844 261.272,204.678 266.5,200.5 Z"/></g>
<g><path style="opacity:1" fill="#eb0400" d="M 281.5,200.5 C 291.818,200.322 294.151,204.489 288.5,213C 278.102,213.471 275.768,209.305 281.5,200.5 Z"/></g>
<g><path style="opacity:1" fill="#eb0400" d="M 292.5,205.5 C 293.693,205.97 294.36,206.97 294.5,208.5C 294.167,209.5 293.833,210.5 293.5,211.5C 292.534,209.604 292.201,207.604 292.5,205.5 Z"/></g>
<g><path style="opacity:1" fill="#eb0400" d="M 245.5,212.5 C 246.725,213.152 247.392,214.319 247.5,216C 247.167,217.167 246.833,218.333 246.5,219.5C 245.526,217.257 245.192,214.924 245.5,212.5 Z"/></g>
<g><path style="opacity:1" fill="#eb0400" d="M 292.5,214.5 C 293.693,214.97 294.36,215.97 294.5,217.5C 294.167,218.5 293.833,219.5 293.5,220.5C 292.534,218.604 292.201,216.604 292.5,214.5 Z"/></g>
<g><path style="opacity:1" fill="#ec160a" d="M 252.5,215.5 C 264.171,215.333 275.838,215.5 287.5,216C 289.523,219.183 290.023,222.683 289,226.5C 288.097,227.701 286.931,228.535 285.5,229C 275.167,229.667 264.833,229.667 254.5,229C 253.069,228.535 251.903,227.701 251,226.5C 250.013,222.525 250.513,218.859 252.5,215.5 Z"/></g>
<g><path style="opacity:1" fill="#eb0400" d="M 292.5,222.5 C 293.725,223.152 294.392,224.319 294.5,226C 294.167,227.167 293.833,228.333 293.5,229.5C 292.526,227.257 292.192,224.924 292.5,222.5 Z"/></g>
<g><path style="opacity:1" fill="#ed1e15" d="M 245.5,225.5 C 247.465,225.948 247.798,226.948 246.5,228.5C 245.614,227.675 245.281,226.675 245.5,225.5 Z"/></g>
<g><path style="opacity:1" fill="#eb0400" d="M 245.5,230.5 C 247.337,230.639 247.67,231.306 246.5,232.5C 245.702,232.043 245.369,231.376 245.5,230.5 Z"/></g>
<g><path style="opacity:1" fill="#ec0400" d="M 253.5,231.5 C 264.505,231.333 275.505,231.5 286.5,232C 289.394,234.909 290.227,238.409 289,242.5C 288.5,243.667 287.667,244.5 286.5,245C 275.167,245.667 263.833,245.667 252.5,245C 250.477,241.817 249.977,238.317 251,234.5C 251.698,233.309 252.531,232.309 253.5,231.5 Z"/></g>
<g><path style="opacity:1" fill="#ec0902" d="M 196.5,232.5 C 197.5,232.5 198.5,232.5 199.5,232.5C 199.832,243.52 199.499,254.52 198.5,265.5C 168.486,281.702 159.986,305.702 173,337.5C 179.486,347.653 188.152,355.32 199,360.5C 199.5,371.495 199.667,382.495 199.5,393.5C 167.248,384.415 146.415,363.748 137,331.5C 130.45,295.14 141.95,265.973 171.5,244C 179.415,239.039 187.748,235.206 196.5,232.5 Z"/></g>
<g><path style="opacity:1" fill="#eb0400" d="M 245.5,234.5 C 247.337,234.639 247.67,235.306 246.5,236.5C 245.702,236.043 245.369,235.376 245.5,234.5 Z"/></g>
<g><path style="opacity:1" fill="#f03927" d="M 292.5,235.5 C 294.465,235.948 294.798,236.948 293.5,238.5C 292.614,237.675 292.281,236.675 292.5,235.5 Z"/></g>
<g><path style="opacity:1" fill="#eb0400" d="M 292.5,240.5 C 294.337,240.639 294.67,241.306 293.5,242.5C 292.702,242.043 292.369,241.376 292.5,240.5 Z"/></g>
<g><path style="opacity:1" fill="#eb0400" d="M 292.5,244.5 C 294.337,244.639 294.67,245.306 293.5,246.5C 292.702,246.043 292.369,245.376 292.5,244.5 Z"/></g>
<g><path style="opacity:1" fill="#ec1609" d="M 252.5,248.5 C 264.171,248.333 275.838,248.5 287.5,249C 289.523,252.183 290.023,255.683 289,259.5C 288.097,260.701 286.931,261.535 285.5,262C 275.167,262.667 264.833,262.667 254.5,262C 253.069,261.535 251.903,260.701 251,259.5C 250.013,255.525 250.513,251.859 252.5,248.5 Z"/></g>
<g><path style="opacity:1" fill="#eb0400" d="M 245.5,251.5 C 247.465,251.948 247.798,252.948 246.5,254.5C 245.614,253.675 245.281,252.675 245.5,251.5 Z"/></g>
<g><path style="opacity:1" fill="#eb0400" d="M 245.5,256.5 C 247.337,256.639 247.67,257.306 246.5,258.5C 245.702,258.043 245.369,257.376 245.5,256.5 Z"/></g>
<g><path style="opacity:1" fill="#eb0400" d="M 245.5,260.5 C 247.337,260.639 247.67,261.306 246.5,262.5C 245.702,262.043 245.369,261.376 245.5,260.5 Z"/></g>
<g><path style="opacity:1" fill="#eb0400" d="M 292.5,261.5 C 294.465,261.948 294.798,262.948 293.5,264.5C 292.614,263.675 292.281,262.675 292.5,261.5 Z"/></g>
<g><path style="opacity:1" fill="#ec0902" d="M 252.5,263.5 C 262.286,265.089 263.953,269.589 257.5,277C 253.114,278.057 249.947,276.557 248,272.5C 247.751,273.624 247.251,274.624 246.5,275.5C 246.077,270.512 248.077,266.512 252.5,263.5 Z"/></g>
<g><path style="opacity:1" fill="#ec0500" d="M 267.5,263.5 C 274.193,263.685 277.026,267.019 276,273.5C 273.324,277.636 269.824,278.469 265.5,276C 261.61,271.154 262.277,266.987 267.5,263.5 Z"/></g>
<g><path style="opacity:1" fill="#ec0601" d="M 282.5,263.5 C 289.771,263.036 292.604,266.369 291,273.5C 289.179,276.991 286.346,278.157 282.5,277C 278.876,274.839 277.709,271.672 279,267.5C 279.69,265.65 280.856,264.316 282.5,263.5 Z"/></g>
<g><path style="opacity:1" fill="#eb0400" d="M 292.5,266.5 C 294.337,266.639 294.67,267.306 293.5,268.5C 292.702,268.043 292.369,267.376 292.5,266.5 Z"/></g>
<g><path style="opacity:1" fill="#eb0400" d="M 292.5,270.5 C 294.337,270.639 294.67,271.306 293.5,272.5C 292.702,272.043 292.369,271.376 292.5,270.5 Z"/></g>
<g><path style="opacity:1" fill="#eb0400" d="M 247.5,277.5 C 249.195,278.011 250.861,278.678 252.5,279.5C 250.45,280.663 248.45,280.496 246.5,279C 247.056,278.617 247.389,278.117 247.5,277.5 Z"/></g>
<g><path style="opacity:1" fill="#eb0400" d="M 255.5,278.5 C 257.337,278.639 257.67,279.306 256.5,280.5C 255.702,280.043 255.369,279.376 255.5,278.5 Z"/></g>
<g><path style="opacity:1" fill="#eb0400" d="M 259.5,278.5 C 261.337,278.639 261.67,279.306 260.5,280.5C 259.702,280.043 259.369,279.376 259.5,278.5 Z"/></g>
<g><path style="opacity:1" fill="#eb0400" d="M 268.5,278.5 C 270.604,278.201 272.604,278.534 274.5,279.5C 273.5,279.833 272.5,280.167 271.5,280.5C 269.97,280.36 268.97,279.693 268.5,278.5 Z"/></g>
<g><path style="opacity:1" fill="#eb0400" d="M 276.5,278.5 C 278.924,278.192 281.257,278.526 283.5,279.5C 282.333,279.833 281.167,280.167 280,280.5C 278.319,280.392 277.152,279.725 276.5,278.5 Z"/></g>
<g><path style="opacity:1" fill="#ed1c0d" d="M 290.5,277.5 C 291.404,278.209 291.737,279.209 291.5,280.5C 284.113,280.314 283.779,279.314 290.5,277.5 Z"/></g>
</svg>
