<?xml version="1.0" encoding="UTF-8"?>
<svg width="500pt" height="500pt" version="1.0" viewBox="0 0 500 500" xmlns="http://www.w3.org/2000/svg">
<g transform="translate(0 500) scale(.1 -.1)" fill="#ec0400">
<path d="m358 4360c-144-25-269-133-319-278-18-53-19-109-19-1571 0-1647-3-1564 56-1671 54-100 176-181 301-200 46-7 514-10 1443-8l1375 3 65 22c115 40 217 138 256 247 16 46 19 95 22 459 2 306 6 407 15 407 7 0 266-255 577-566l565-566 53 6c91 8 190 85 233 180 18 40 19 98 19 1676 0 1586-1 1636-19 1677-44 95-161 183-245 183-40 0-47-6-608-567-313-313-573-569-578-571-6-2-10 161-12 420l-3 423-33 67c-59 120-175 207-307 228-72 12-2767 12-2837 0zm1637-926c290-39 637-192 871-385 23-19 53-43 67-54 83-65 237-225 350-363 97-119 95-159-10-292-159-200-403-417-611-544-347-212-731-299-1108-252-504 62-952 330-1330 796-74 91-84 109-84 152s18 76 88 162c390 479 879 757 1402 796 115 8 218 4 365-16z"/>
<path d="m1665 3154c-194-46-281-89-385-194-129-129-194-284-194-465 0-190 58-329 194-465 95-96 173-142 304-180 106-30 265-25 371 13 204 72 356 226 426 432 34 98 35 288 2 387-39 119-80 185-166 272-92 93-173 142-285 176-70 20-224 35-267 24zm258-292c261-129 315-462 107-662-86-82-164-114-286-114-85 0-96 2-165 36-92 46-161 113-202 198-25 53-32 81-35 153-4 77-1 97 23 164 44 120 140 208 275 254 14 4 68 7 120 6 86-2 103-5 163-35z"/>
</g>
</svg>