<?xml version="1.0" encoding="UTF-8"?>
<svg width="500pt" height="500pt" viewBox="0 0 500 500" xmlns="http://www.w3.org/2000/svg">
<g transform="translate(0 500) scale(.1 -.1)" fill="#256aff">
<path d="m2165 4690c-314-22-639-70-839-125-140-38-293-93-381-137-144-72-260-169-303-254-11-22-25-58-31-82l-12-43-3-1502c-2-826 1-1537 5-1579l8-77 25-48c32-65 106-145 175-192 160-109 407-198 716-260 217-44 446-70 729-83l249-12 251 12c543 26 973 111 1272 252 127 60 207 114 271 183 60 66 92 130 103 206 4 31 7 745 7 1586l-2 1530-23 57c-30 74-78 136-155 198l-62 51-110 54c-60 29-150 68-200 85-218 76-504 132-845 165l-165 16-275 4c-151 2-333 0-405-5zm820-306c437-40 820-140 1008-263 75-49 117-92 117-119 0-28-85-97-176-144-220-114-524-189-944-234l-165-18h-330l-330 1-155 17c-314 34-550 82-752 152-171 60-314 140-348 196-11 18-20 36-20 40 0 21 76 88 142 125 207 119 572 210 988 247 96 9 209 17 250 19 173 6 557-4 715-19zm-1988-828c158-68 398-137 588-171 161-29 383-54 568-66l182-12 590 12 135 15c421 47 719 119 975 235 37 17 69 31 71 31s4-138 4-307v-307l-54-51-53-51-94-46c-274-135-718-216-1272-234l-202-6-200 11c-110 6-261 18-335 26-455 52-816 166-962 306l-48 45v308 308l13-5c6-3 49-21 94-41zm-39-985c213-107 578-197 962-237l155-16 694-10 198 16c109 10 281 31 382 47 283 46 484 103 670 190 46 21 85 39 87 39s4-136 4-302v-303l-19-31c-57-93-349-215-665-279-280-56-464-74-811-82l-280-6-175 12c-280 19-519 55-737 112-259 66-478 172-519 250l-14 28v301c0 165 2 300 5 300s31-13 63-29zm172-1075c112-41 364-100 545-130 215-34 444-55 699-62l211-6 190 11c360 22 604 56 867 122 174 43 263 73 386 130l82 38v-309-308l-25-31c-31-36-135-103-224-143-99-44-307-104-476-137-176-35-381-57-654-72l-196-10-175 6c-374 13-694 53-930 116-228 61-411 144-497 225l-43 41v311 311l83-38c45-21 116-51 157-65z"/>
</g>
</svg>
