<?xml version="1.0" encoding="UTF-8"?>
<svg width="512pt" height="512pt" version="1.0" viewBox="0 0 512 512" xmlns="http://www.w3.org/2000/svg">
<g transform="translate(0 512) scale(.1 -.1)" fill="#256aff">
<path d="m2460 4668c-25-14-58-44-75-67-30-42-30-44-33-195l-3-152-112-21c-681-131-1218-669-1350-1350l-22-113h-141c-128 0-145-2-185-23-24-13-57-43-74-66-27-39-30-50-30-120 0-68 3-82 27-117 15-21 44-50 65-64 34-23 46-25 188-28l151-3 21-112c116-604 556-1102 1143-1297 52-17 146-41 208-53l112-22v-141c0-127 2-145 23-183 12-24 42-57 66-75 39-28 49-31 120-31 68 0 82 3 117 27 21 15 50 44 64 65 23 34 25 46 28 188l3 151 112 21c534 103 988 458 1221 955 58 123 102 258 129 395l21 112 152 3c146 3 152 4 190 30 21 15 50 44 64 65 21 31 25 48 25 114 0 71-3 81-31 120-18 24-51 54-75 66-38 21-56 23-183 23h-141l-22 113c-63 329-225 635-463 875-245 247-549 409-887 475l-112 21-3 152c-3 146-4 152-30 190-44 62-90 88-167 92-55 3-74-1-111-20zm-110-968c0-86 4-131 15-158 64-152 273-172 370-34 29 43 30 47 33 178 2 74 7 134 10 134 4 0 44-9 89-20 452-108 825-481 933-934 11-45 20-84 20-88 0-5-54-8-120-8-129 0-173-11-218-53-87-81-87-233 0-314 45-42 89-53 218-53 66 0 120-3 120-7 0-5-9-44-20-89-94-393-384-726-765-880-71-28-228-74-257-74-5 0-8 54-8 120 0 129-11 173-53 218-81 87-233 87-314 0-42-45-53-89-53-218 0-66-4-120-9-120s-51 11-102 24c-446 113-812 484-919 929-11 45-20 85-20 89 0 3 60 8 134 10 131 3 135 4 178 33 138 97 118 306-34 370-27 11-72 15-158 15-66 0-120 3-120 8 0 4 9 43 20 88 92 386 378 719 751 875 66 28 235 77 267 79 9 0 12-30 12-120z"/>
<path d="m2420 3184c-111-23-224-86-311-173-251-252-252-650 0-901 253-252 651-253 901-1 253 254 253 648 0 902-155 156-374 220-590 173zm254-444c20-14 49-43 64-64 24-35 27-49 27-116s-3-81-27-116c-15-21-44-50-65-64-31-21-48-25-113-25s-82 4-113 25c-21 14-50 43-65 64-24 35-27 49-27 117 0 70 3 81 30 120 45 64 104 91 186 87 50-3 75-10 103-28z"/>
</g>
</svg>
