<?xml version="1.0" encoding="UTF-8"?>
<svg width="32pt" height="32pt" version="1.0" viewBox="0 0 512 512" xmlns="http://www.w3.org/2000/svg">
<g transform="translate(0 512) scale(.1 -.1)" fill="#256aff">
<path d="m2395 4796c-351-68-620-310-729-655-42-132-48-275-43-953 5-639 5-644 55-788 96-276 322-493 607-583 498-157 1034 136 1175 644 33 120 40 263 40 844-1 727-6 777-105 980-122 253-333 423-613 496-100 26-291 34-387 15z"/>
<path d="m1210 2859c-33-13-68-47-86-81-20-39-18-165 6-304 78-454 351-827 770-1053 93-50 290-116 390-132 41-6 85-15 98-20l22-9-2-317-3-318-212-5c-194-5-214-7-239-26-51-38-68-70-68-129s17-91 68-129c27-21 37-21 606-21s579 0 606 21c51 38 68 70 68 129s-17 91-68 129c-25 19-45 21-239 26l-212 5-3 318-2 317 22 9c13 5 57 14 98 20 100 16 297 82 390 132 279 151 504 378 640 648 86 173 150 429 150 606 0 90-16 127-73 169-38 28-126 28-164 0-50-38-66-78-74-193-24-308-134-547-346-752-166-160-346-257-568-304-109-24-341-24-450 0-389 83-710 358-844 723-40 107-71 262-71 349 0 77-26 143-70 175-31 22-106 31-140 17z"/>
</g>
</svg>