<?xml version="1.0" encoding="UTF-8"?>
<svg width="200pt" height="200pt" version="1.0" viewBox="0 0 200 200" xmlns="http://www.w3.org/2000/svg">
<g transform="translate(0 200) scale(.1 -.1)" fill="#256aff">
<path d="m214 1796-34-34v-461c0-493 1-505 49-531 11-5 69-10 130-10h111v-116-116l34-34c34-34 34-34 130-34h96v-111-111l68-68h477 477l68 68v476c0 513 0 517-52 544-12 6-70 13-128 14l-105 3-3 101c-3 98-4 102-33 130s-34 29-145 32l-114 4v104c0 116-11 152-55 172-19 9-150 12-481 12h-456l-34-34zm954-38c8-8 12-48 12-115v-103h-305c-328 0-355-4-389-51-14-21-16-64-16-346v-323h-103c-67 0-107 4-115 12-17 17-17 909 0 926s899 17 916 0zm283-288c17-9 19-22 19-105v-95h-337c-305 0-340-2-359-18-43-34-44-47-44-396v-336h-81c-132 0-119-51-119 475 0 399 2 455 16 469s68 16 450 16c281 0 442-4 455-10zm297-272c17-17 17-939 0-956s-929-17-946 0-17 939 0 956 929 17 946 0z"/>
</g>
</svg>