<?xml version="1.0" encoding="UTF-8"?>
<svg width="256pt" height="256pt" version="1.0" viewBox="0 0 256 256" xmlns="http://www.w3.org/2000/svg">
<g transform="translate(0 256) scale(.1 -.1)" fill="#256aff">
<path d="m705 2254c-326-72-588-347-646-680-16-93-6-270 21-364 94-328 381-569 723-605l67-7v31c0 30-2 31-42 31-24 0-79 9-123 19-355 86-595 390-597 756-2 305 159 563 441 704 142 72 357 96 515 57 190-46 362-167 472-333l36-55-176-177c-161-163-176-181-176-213 0-72 73-118 128-82 15 10 73 63 130 117l102 100v-240-240l-49-69c-98-140-244-252-398-305-31-10-58-19-60-19-1 0-3 38-3 85 0 89-15 137-45 149-37 14-86 6-110-19-28-27-29-54-25-410 2-173 8-197 56-215 39-15 1416-13 1449 2 51 23 55 45 55 327v259l-26 31c-19 23-34 31-59 31-88 0-95-20-95-275v-205h-600-600v95c0 88 1 95 20 95 32 0 150 48 222 91 76 44 172 129 230 202l38 49v-102c0-134 19-169 92-170 28 0 42 7 62 31l26 31v396 396l113-111c66-65 123-113 140-117 32-8 81 14 97 43 28 53 19 66-197 283-194 195-210 208-244 208-24 0-45-8-63-25-28-26-36-22-11 5 15 16 11 24-46 99-104 139-238 234-409 292-85 29-109 32-230 35-95 3-156-1-205-12z"/>
<path d="m762 1919c-125-62-177-214-116-337 94-188 364-188 458 0 32 64 35 152 7 213-21 46-88 111-137 131-52 22-161 18-212-7z"/>
<path d="m701 1405c-136-38-227-149-239-291-4-53-2-64 16-82 39-39 87-43 425-40 304 3 324 4 357 24 34 19 35 22 38 88 5 120-58 220-176 278-65 32-69 33-217 35-109 2-165-1-204-12z"/>
</g>
</svg>