<?xml version="1.0" encoding="UTF-8"?>
<svg width="512pt" height="512pt" version="1.0" viewBox="0 0 512 512" xmlns="http://www.w3.org/2000/svg">
<g transform="translate(0 512) scale(.1 -.1)" fill="#256aff">
<path d="m685 4428c-3-7-4-852-3-1878l3-1865h1875 1875l3 938 2 937h-190-190v-750-750h-1500-1500v1500 1500h750 750v190 190h-935c-739 0-937-3-940-12z"/>
<path d="m3210 4165 265-265-528-528c-290-290-527-532-527-537 0-6 92-102 205-215l205-205 738 738c174 174 321 317 327 317 5 0 130-120 277-267l268-268v748 747h-747-748l265-265z"/>
</g>
</svg>