<?xml version="1.0" encoding="UTF-8"?>
<svg width="512pt" height="512pt" version="1.0" viewBox="0 0 512 512" xmlns="http://www.w3.org/2000/svg">
<g transform="translate(0 512) scale(.1 -.1)" fill="#ec0400">
<path d="m2356 5109c-390-41-764-207-1072-476-177-155-332-360-444-588-113-228-168-424-191-679-20-207 12-433 97-691 36-109 155-372 242-533l45-84-271-271c-233-234-271-277-277-310-12-61 3-108 46-149 51-48 108-59 170-30 34 15 473 449 1846 1823 1611 1613 1802 1808 1808 1842 9 49-1 99-26 131-20 25-24 26-127 26h-107l-383-383-99 67c-361 240-820 351-1257 305zm446-823c95-24 238-87 288-126l25-19-1336-1336-19 25c-39 49-102 193-127 288-36 134-38 334-5 466 95 383 404 663 800 726 93 15 265 4 374-24z"/>
<path d="m3816 3941-329-329 14-68c21-106 17-301-9-408-25-99-81-225-139-313-200-302-584-469-943-409l-103 18-469-469c-257-257-468-470-468-473 1-9 283-414 422-606 159-219 394-522 556-719 124-150 154-171 229-162 24 2 54 12 68 21 29 19 252 291 445 541 501 652 919 1301 1136 1763 212 450 279 745 243 1070-23 217-81 423-170 612-50 106-138 260-149 260-3 0-153-148-334-329z"/>
</g>
</svg>
