<?xml version="1.0" encoding="UTF-8"?>
<svg width="612pt" height="612pt" version="1.0" viewBox="0 0 612 612" xmlns="http://www.w3.org/2000/svg">
<g transform="translate(0 612) scale(.1 -.1)" fill="#ec0400">
<path d="m2670 5178c-409-38-835-216-1146-479-389-327-642-758-735-1254-26-138-37-465-20-611 44-383 185-738 415-1044 339-452 854-751 1421-826 170-23 496-15 655 16 133 25 303 75 410 120 136 57 130 57 186 17 125-89 233-136 382-167 166-33 315-23 483 34 234 79 436 255 542 472 78 157 101 275 94 461-7 185-36 288-128 449-43 74-180 228-242 270l-27 19 17 105c23 146 23 467 0 614-45 281-142 553-285 791-72 120-208 293-321 405-452 449-1064 668-1701 608zm80-703v-365h-44c-68 0-237 18-389 41l-138 22 6 25c11 43 101 218 150 292 71 107 131 176 204 236 64 53 170 114 198 114 11 0 13-67 13-365zm354 328c96-51 221-172 301-293 70-104 179-321 167-331-17-17-418-69-529-69h-33v365c0 260 3 365 11 365 6 0 43-17 83-37zm-887-40c-104-130-184-264-252-423-21-47-40-88-44-93-12-13-361 116-361 133 0 12 124 122 211 187 106 79 247 160 374 214 61 27 114 48 118 48 4 1-16-29-46-66zm1416 7c132-59 265-137 372-219 84-65 185-158 185-171 0-14-346-148-355-138-2 2-25 53-53 115-64 145-144 276-232 386-80 101-82 100 83 27zm-2134-650c51-22 148-59 215-82 66-23 122-42 124-43 1-1-9-47-22-101-43-169-69-345-91-616l-7-78h-350-351l7 72c17 183 82 412 171 595 72 151 173 306 194 300 9-3 58-24 110-47zm2933-26c112-161 225-432 268-636 18-89 41-250 36-255-3-4-698-5-701-1-1 2-7 73-14 159-13 175-39 348-76 505-14 58-25 112-25 119s41 26 98 44c53 17 153 55 222 85s129 54 135 52c5-1 31-34 57-72zm-2171-193c120-20 249-34 412-47l77-6-2-326c-2-254-6-327-15-326-7 1-180 2-384 3l-372 1 7 103c12 181 51 417 97 590 9 34 13 38 33 33 12-3 78-14 147-25zm1432-88c48-216 77-423 77-550v-63h-380-380v324 324l78 6c171 14 372 38 457 55 50 10 97 19 106 20 12 1 22-25 42-116zm-1969-950c20-259 52-471 96-643 10-41 17-76 15-78s-52-21-112-42c-156-55-179-64-267-104-44-20-82-33-85-29-109 147-209 345-275 549-30 89-76 325-76 385v39h349 349l6-77zm1026-252v-328l-117-7c-139-8-321-31-450-55l-93-18-10 36c-42 146-100 531-100 661v40h385 385v-329zm1020 255c0-125-28-317-51-346-84-107-116-155-148-218-36-74-36-74-71-68-109 17-279 36-377 42l-113 7v328 329h380 380v-74zm965 27c-14-115-15-115-38-109-202 60-438 51-626-24l-54-21 7 47c3 26 6 71 6 100v54h356 355l-6-47zm-167-289c221-46 410-190 511-391 115-228 105-500-26-715-19-32-38-58-42-58-13 0-1026 1019-1026 1032 0 16 92 72 165 99 131 50 280 61 418 33zm-219-798c291-291 511-519 507-525-12-18-134-82-209-109-65-23-87-26-227-26-145-1-160 1-235 27-159 56-301 166-390 302-140 213-157 504-43 730 34 67 66 115 76 115 4 0 238-231 521-514zm-1599-152v-365l-22 6c-105 32-259 162-362 305-57 79-186 319-186 345 0 15 49 26 215 50 114 16 334 34 348 27 4-2 7-167 7-368zm525 351c72-8 144-18 161-21l32-6 4-116c5-130 4-135-65-237-60-89-131-168-201-225-68-54-187-115-196-101-3 5-4 169-2 365l2 356h68c37 0 126-7 197-15zm-1345-129c0-7 36-85 80-172 73-146 162-284 234-365l29-32-29 7c-99 25-333 150-467 250-98 73-217 176-217 187s74 44 215 95c130 46 155 51 155 30zm1675-487c9-17 15-32 13-33-9-7-112-46-120-46-5 0 10 25 34 55 23 30 46 55 50 55s15-14 23-31z"/>
</g>
</svg>