<?xml version="1.0" encoding="UTF-8"?>
<svg width="1014pt" height="1546pt" version="1.0" viewBox="-10 0 1024 1556" xmlns="http://www.w3.org/2000/svg">
<g transform="translate(0 1546) scale(.1 -.1)">
<rect x="60" y="9900" width="2850" height="5e3" rx="256" ry="256" fill="none" stroke="#ec0400" stroke-dasharray="10%,10%,10%,10%,10%,30%,30%,10%,30%,10%,30%,30%,10%,10%,10%,10%,10%,70%" stroke-width="10%"/>
<circle cx="555" cy="14300" r="384" fill="#ec0400" stroke="#ec0400" stroke-width="5%"/>
<circle cx="1475" cy="14300" r="384" fill="#ec0400" stroke="#ec0400" stroke-width="5%"/>
<circle cx="2395" cy="14300" r="384" fill="#ec0400" stroke="#ec0400" stroke-width="5%"/>
<rect x="330" y="13000" width="2304" height="768" rx="256" ry="256" fill="#ec0400" stroke="#ec0400" stroke-width="5%"/>
<rect x="330" y="12000" width="2304" height="768" rx="256" ry="256" fill="#ec0400" stroke="#ec0400" stroke-width="5%"/>
<rect x="330" y="11000" width="2304" height="768" rx="256" ry="256" fill="#ec0400" stroke="#ec0400" stroke-width="5%"/>
<circle cx="555" cy="10450" r="384" fill="#ec0400" stroke="#ec0400" stroke-width="5%"/>
<circle cx="1475" cy="10450" r="384" fill="#ec0400" stroke="#ec0400" stroke-width="5%"/>
<circle cx="2395" cy="10450" r="384" fill="#ec0400" stroke="#ec0400" stroke-width="5%"/>
<path d="m5155 15340c-304-29-569-145-808-353-70-61-216-241-281-347-214-350-252-826-97-1225 98-254 315-525 536-673 158-105 376-190 556-217 419-63 850 69 1152 354 132 124 301 383 370 566 104 276 115 578 32 870-39 139-158 365-261 496-87 111-234 247-335 312-254 162-581 245-864 217z" fill="#256aff" stroke="#256aff" stroke-width="15%"/>
<path d="m5883 12309c-227-17-496-114-703-252-307-205-672-589-1065-1122-181-244-326-456-728-1060-180-269-335-500-345-513l-18-23-1090 13c-1398 17-1315 18-1386-14-88-40-175-104-263-192s-139-169-175-281c-32-95-32-285-2-393 70-246 220-411 429-473 80-24 238-31 1183-50 771-17 1484-17 1645-1 392 40 573 206 1126 1034 150 225 159 236 164 205 3-18 23-147 45-287 81-516 222-1252 399-2075 51-237 131-577 147-628 9-27 12-52 8-56-5-4-347-271-760-593-422-330-774-612-804-645-62-68-112-143-147-222-46-103-1213-3253-1240-3345-22-76-26-112-27-221-1-136 11-213 46-305 79-207 230-369 425-455 124-55 190-69 333-69 143-1 201 9 310 51 217 83 371 225 465 426 19 40 280 738 580 1552s552 1488 558 1497c13 18 1828 1498 1837 1498 3 0 300-1054 659-2342 360-1289 664-2371 676-2405 48-134 152-260 299-362 151-104 285-146 466-144 109 1 121 3 230 42 155 56 247 111 341 202 118 115 192 242 235 399 26 98 24 292-4 390-97 339-1652 5906-1661 5945-6 28-45 195-86 372-96 409-188 837-260 1208-31 160-99 497-151 750s-129 638-170 855-76 403-79 414c-3 16 1 14 23-7 39-37 96-63 402-182 250-98 522-212 704-295l69-32-7-801c-3-441-9-1045-12-1342-7-537-7-540 16-630 62-247 229-425 465-494 112-34 296-34 405-1 145 43 251 111 348 222 60 69 96 132 130 233 24 69 24 75 32 655 5 322 14 756 21 965 18 586 3 1372-32 1640-26 202-123 384-273 514-192 166-627 395-1157 609-1089 440-2021 664-2576 621z" fill="#256aff" stroke="#256aff" stroke-width="25%"/>
</g>
</svg>