<?xml version="1.0" encoding="UTF-8"?>
<svg width="64pt" height="64pt" version="1.0" viewBox="0 0 64 64" xmlns="http://www.w3.org/2000/svg">
<g transform="translate(0 64) scale(.1 -.1)" fill="#256aff">
<path d="m52 548c-17-17-17-439 0-456s519-17 536 0 17 439 0 456-519 17-536 0zm506-198 3-165-70 69-69 68-31-18-32-19-45 48c-25 26-51 47-57 47-7 0-48-44-92-97l-80-97-3 154c-1 85 0 160 2 167 4 11 54 13 238 11l233-3 3-165z"/>
<path d="m420 460c-11-11-20-29-20-40s9-29 20-40 29-20 40-20c26 0 60 34 60 60 0 11-9 29-20 40s-29 20-40 20-29-9-40-20z"/>
</g>
</svg>