<?xml version="1.0" encoding="UTF-8"?>
<svg width="452pt" height="452pt" version="1.0" viewBox="0 0 452 452" xmlns="http://www.w3.org/2000/svg">
<g transform="translate(0 452) scale(.1 -.1)" fill="#256aff">
<path d="m1410 3745v-495h145 145v350 350h140 140v-70-70h140 140v70 70h635 635v-70-70h140 140v70 70h145 145v-845-845h-145-145v70 70h-140-140v-210-210h425 425v1130 1130h-1485-1485v-495z"/>
<path d="m1980 3390v-140h140 140v140 140h-140-140v-140z"/>
<path d="m3530 3390v-140h140 140v140 140h-140-140v-140z"/>
<path d="m285 2958c-3-7-4-580-3-1273l3-1260 1483-3 1482-2v1275 1275h-1480c-1175 0-1482-3-1485-12zm2685-963c0-377-3-685-7-685-5 0-110 102-235 227l-228 228-397-397-351 354-351 353-416-415-415-415v718 717h1200 1200v-685zm-1215-675 349-349 190 194c104 107 194 195 200 195s116-105 243-232l233-233v-92-93h-1200-1200v67 68l412 412c227 227 415 413 418 413s162-157 355-350z"/>
<path d="m2105 2381c-158-73-168-292-17-374 140-76 312 24 312 183 0 150-160 253-295 191z"/>
<path d="m3530 2825v-145h140 140v145 145h-140-140v-145z"/>
</g>
</svg>