<?xml version="1.0" encoding="UTF-8"?>
<svg width="64pt" height="64pt" viewBox="0 0 64 64" xmlns="http://www.w3.org/2000/svg" fill="#0f0">
<g transform="translate(0 64) scale(.1 -.1)" fill="none">
<path d="m0 320v-320h320 320v320 320h-320-320v-320zm594 208 16-22v-186-186l-16-22-15-22h-259-259l-15 22-16 22v186 186l16 22 15 22h259 259l15-22z"/>
<path d="m70 320v-190h250 250v190 190h-250-250v-190zm430 70v-60h-85-85v60 60h85 85v-60z"/>
</g>
<g transform="translate(0 64) scale(.1 -.1)">
<path d="m36 538-16-22v-196-196l16-22 15-22h269 269l15 22 16 22v196 196l-16 22-15 22h-269-269l-15-22zm524-218v-180h-240-240v180 180h240 240v-180z"/>
<path d="m320 390v-70h95 95v70 70h-95-95v-70z"/>
</g>
<g transform="translate(0 64) scale(.1 -.1)">
<path d="m24 320c0-113 2-159 3-102 2 56 2 148 0 205-1 56-3 10-3-103z"/>
<path d="m614 320c0-113 2-159 3-102 2 56 2 148 0 205-1 56-3 10-3-103z"/>
<path d="m198 503c67-2 177-2 245 0 67 1 12 3-123 3s-190-2-122-3z"/>
<path d="m363 453c26-2 68-2 95 0 26 2 4 3-48 3s-74-1-47-3z"/>
<path d="m198 133c67-2 177-2 245 0 67 1 12 3-123 3s-190-2-122-3z"/>
</g>
<g transform="translate(0 64) scale(.1 -.1)">
<path d="m503 385c0-38 2-53 4-32 2 20 2 52 0 70-2 17-4 1-4-38z"/>
</g>
</svg>
