<?xml version="1.0" encoding="UTF-8"?>
<svg width="2e3pt" height="2e3pt" version="1.0" viewBox="0 0 2e3 2e3" xmlns="http://www.w3.org/2000/svg">
<g transform="translate(0 2e3) scale(.1 -.1)" fill="#256aff">
<path d="m19875 15346c-40-18-3202-1806-4345-2456-151-86-276-154-277-151s-7 161-12 351c-11 390-19 441-97 680-162 494-499 916-944 1182-179 107-377 186-640 255l-105 28-5929 3-5928 2-117-26c-254-56-531-166-723-287-298-189-558-459-727-758l-31-56v-4114-4115l55-92c316-536 876-913 1511-1018 91-15 519-17 5104-21 2753-2 5399 0 5880 5l875 10 115 25c326 70 642 219 904 424 107 84 302 286 385 400 187 254 338 600 386 878 14 78 30 372 38 681l2 91 1740-986c2950-1671 2896-1641 2960-1649l45-5v5295c0 2912-3 5329-6 5371l-7 77h-31c-17 0-53-11-81-24zm-6603-1878c68-32 147-103 184-165 26-44 26-46 34-346 12-385 12-5523 1-5919-8-283-10-299-31-335-31-51-85-108-139-145-41-29-53-32-180-42-193-15-11089-15-11282 0-127 10-139 13-180 42-54 37-108 94-138 145-22 36-24 52-32 330-11 387-11 5538 1 5924 8 300 8 302 34 346 33 55 109 127 167 159l44 23 810 6c446 3 3024 5 5730 4h4920l57-27zm5223-990c8-91 2-5014-6-5022-3-3-332 179-730 405-398 225-1123 636-1611 912l-887 502-1 725v725l1258 712c691 392 1415 803 1607 912 193 110 353 200 357 200 3 1 9-32 13-71z"/>
</g>
</svg>