<?xml version="1.0" encoding="UTF-8"?>
<!DOCTYPE svg PUBLIC "-//W3C//DTD SVG 1.1//EN" "http://www.w3.org/Graphics/SVG/1.1/DTD/svg11.dtd">
<svg xmlns="http://www.w3.org/2000/svg" version="1.1" width="2500px" height="2500px" style="shape-rendering:geometricPrecision; text-rendering:geometricPrecision; image-rendering:optimizeQuality; fill-rule:evenodd; clip-rule:evenodd" xmlns:xlink="http://www.w3.org/1999/xlink">
<g><path style="opacity:1" fill="#fefeff" d="M -0.5,-0.5 C 832.833,-0.5 1666.17,-0.5 2499.5,-0.5C 2499.5,195.167 2499.5,390.833 2499.5,586.5C 2498.53,584.052 2498.19,581.385 2498.5,578.5C 2494.4,578.234 2490.4,578.734 2486.5,580C 2296.84,686.494 2107.51,793.494 1918.5,901C 1914.37,903.403 1910.03,905.237 1905.5,906.5C 1915.38,810.957 1886.38,729.791 1818.5,663C 1795.68,642.409 1770.01,626.076 1741.5,614C 1722.08,606.858 1702.41,600.525 1682.5,595C 1187.5,594.333 692.5,594.333 197.5,595C 109.431,610.812 43.4314,657.312 -0.5,734.5C -0.5,489.5 -0.5,244.5 -0.5,-0.5 Z"/></g>
<g><path style="opacity:1" fill="#256aff" d="M 2499.5,586.5 C 2499.5,1031.17 2499.5,1475.83 2499.5,1920.5C 2496.48,1920.66 2493.48,1920.5 2490.5,1920C 2473.34,1911.25 2456.34,1902.25 2439.5,1893C 2262,1792.75 2084.67,1692.25 1907.5,1591.5C 1905.63,1614.45 1904.47,1637.45 1904,1660.5C 1894.95,1747.8 1854.12,1815.63 1781.5,1864C 1749.63,1883.43 1715.3,1896.43 1678.5,1903C 1617.17,1904.04 1555.84,1904.71 1494.5,1905C 1139.17,1905.67 783.833,1905.67 428.5,1905C 350.494,1904.86 272.494,1904.2 194.5,1903C 108.218,1886.24 43.2176,1840.08 -0.5,1764.5C -0.5,1421.17 -0.5,1077.83 -0.5,734.5C 43.4314,657.312 109.431,610.812 197.5,595C 692.5,594.333 1187.5,594.333 1682.5,595C 1702.41,600.525 1722.08,606.858 1741.5,614C 1770.01,626.076 1795.68,642.409 1818.5,663C 1886.38,729.791 1915.38,810.957 1905.5,906.5C 1910.03,905.237 1914.37,903.403 1918.5,901C 2107.51,793.494 2296.84,686.494 2486.5,580C 2490.4,578.734 2494.4,578.234 2498.5,578.5C 2498.19,581.385 2498.53,584.052 2499.5,586.5 Z"/></g>
<g><path style="opacity:1" fill="#fefefe" d="M 775.5,719.5 C 1119.17,719.5 1462.83,719.5 1806.5,719.5C 1806.5,1063.17 1806.5,1406.83 1806.5,1750.5C 1462.83,1750.5 1119.17,1750.5 775.5,1750.5C 775.5,1729.17 775.5,1707.83 775.5,1686.5C 592.83,1686.87 410.164,1686.37 227.5,1685C 219.572,1685.27 212.572,1682.94 206.5,1678C 199.056,1672.24 193.556,1665.07 190,1656.5C 189.667,1653.83 189.333,1651.17 189,1648.5C 187.859,1517.51 187.359,1386.51 187.5,1255.5C 187.373,1119.49 187.873,983.495 189,847.5C 189.188,843.123 190.521,839.123 193,835.5C 199.692,826.138 208.192,818.971 218.5,814C 404.164,812.648 589.83,812.148 775.5,812.5C 775.5,781.5 775.5,750.5 775.5,719.5 Z"/></g>
<g><path style="opacity:1" fill="#256aff" d="M 1297.5,722.5 C 1348.74,721.526 1383.58,744.859 1402,792.5C 1411.96,828.019 1405.3,860.019 1382,888.5C 1354.61,918.181 1321.11,928.348 1281.5,919C 1241.16,905.324 1217.33,877.49 1210,835.5C 1206.67,785.206 1227.84,749.706 1273.5,729C 1281.46,726.178 1289.46,724.012 1297.5,722.5 Z"/></g>
<g><path style="opacity:1" fill="#ec0c04" d="M 974.5,754.5 C 975.5,754.5 976.5,754.5 977.5,754.5C 977.704,757.518 978.037,760.518 978.5,763.5C 970.942,765.068 967.609,769.735 968.5,777.5C 965.5,777.5 962.5,777.5 959.5,777.5C 959.327,766.359 964.327,758.692 974.5,754.5 Z"/></g>
<g><path style="opacity:1" fill="#ed1b0f" d="M 1003.5,754.5 C 1006.5,754.5 1009.5,754.5 1012.5,754.5C 1012.5,757.167 1012.5,759.833 1012.5,762.5C 1009.5,762.5 1006.5,762.5 1003.5,762.5C 1003.5,759.833 1003.5,757.167 1003.5,754.5 Z"/></g>
<g><path style="opacity:1" fill="#ee2011" d="M 1021.5,754.5 C 1024.5,754.5 1027.5,754.5 1030.5,754.5C 1030.5,757.167 1030.5,759.833 1030.5,762.5C 1027.5,762.5 1024.5,762.5 1021.5,762.5C 1021.5,759.833 1021.5,757.167 1021.5,754.5 Z"/></g>
<g><path style="opacity:1" fill="#ec0400" d="M 1038.5,754.5 C 1041.5,754.5 1044.5,754.5 1047.5,754.5C 1047.5,757.167 1047.5,759.833 1047.5,762.5C 1044.5,762.5 1041.5,762.5 1038.5,762.5C 1038.5,759.833 1038.5,757.167 1038.5,754.5 Z"/></g>
<g><path style="opacity:1" fill="#ec0400" d="M 1108.5,754.5 C 1111.17,754.5 1113.83,754.5 1116.5,754.5C 1116.5,757.167 1116.5,759.833 1116.5,762.5C 1113.83,762.5 1111.17,762.5 1108.5,762.5C 1108.5,759.833 1108.5,757.167 1108.5,754.5 Z"/></g>
<g><path style="opacity:1" fill="#ec0400" d="M 1125.5,754.5 C 1128.5,754.5 1131.5,754.5 1134.5,754.5C 1134.5,757.167 1134.5,759.833 1134.5,762.5C 1131.5,762.5 1128.5,762.5 1125.5,762.5C 1125.5,759.833 1125.5,757.167 1125.5,754.5 Z"/></g>
<g><path style="opacity:1" fill="#ec0f07" d="M 1144.5,756.5 C 1147.76,758.094 1150.43,760.427 1152.5,763.5C 1150.42,765.288 1148.26,766.954 1146,768.5C 1144.46,766.622 1142.62,765.122 1140.5,764C 1141.97,761.552 1143.31,759.052 1144.5,756.5 Z"/></g>
<g><path style="opacity:1" fill="#ec0701" d="M 969.5,800.5 C 969.5,798.5 969.5,796.5 969.5,794.5C 972.172,779.499 981.172,771.499 996.5,770.5C 1016.92,773.313 1025.75,784.979 1023,805.5C 1016.67,822.081 1004.84,828.248 987.5,824C 976.559,819.951 970.559,812.117 969.5,800.5 Z"/></g>
<g><path style="opacity:1" fill="#ec0802" d="M 1051.5,770.5 C 1074.81,769.975 1085.64,781.309 1084,804.5C 1078.79,820.031 1067.96,826.865 1051.5,825C 1031.66,817.814 1025.49,804.314 1033,784.5C 1037.53,777.505 1043.69,772.839 1051.5,770.5 Z"/></g>
<g><path style="opacity:1" fill="#ec0701" d="M 1112.5,770.5 C 1129.39,769.021 1140.23,776.354 1145,792.5C 1146.97,809.408 1139.8,820.242 1123.5,825C 1100.67,826.167 1089.83,815.333 1091,792.5C 1094.34,781.326 1101.51,773.993 1112.5,770.5 Z"/></g>
<g><path style="opacity:1" fill="#ec0400" d="M 967.5,786.5 C 967.5,795.167 967.5,803.833 967.5,812.5C 964.833,812.5 962.167,812.5 959.5,812.5C 959.5,803.833 959.5,795.167 959.5,786.5C 962.167,786.5 964.833,786.5 967.5,786.5 Z"/></g>
<g><path style="opacity:1" fill="#f2443b" d="M 967.5,786.5 C 968.167,789.167 968.833,791.833 969.5,794.5C 969.5,796.5 969.5,798.5 969.5,800.5C 968.833,804.5 968.167,808.5 967.5,812.5C 967.5,803.833 967.5,795.167 967.5,786.5 Z"/></g>
<g><path style="opacity:1" fill="#ec0400" d="M 1147.5,791.5 C 1150.5,791.5 1153.5,791.5 1156.5,791.5C 1156.5,800.167 1156.5,808.833 1156.5,817.5C 1153.5,817.5 1150.5,817.5 1147.5,817.5C 1147.5,808.833 1147.5,800.167 1147.5,791.5 Z"/></g>
<g><path style="opacity:1" fill="#ec0d06" d="M 959.5,821.5 C 962.5,821.5 965.5,821.5 968.5,821.5C 968.5,830.167 968.5,838.833 968.5,847.5C 965.5,847.5 962.5,847.5 959.5,847.5C 959.5,838.833 959.5,830.167 959.5,821.5 Z"/></g>
<g><path style="opacity:1" fill="#ec0400" d="M 1147.5,826.5 C 1150.5,826.5 1153.5,826.5 1156.5,826.5C 1156.5,835.167 1156.5,843.833 1156.5,852.5C 1153.5,852.5 1150.5,852.5 1147.5,852.5C 1147.5,843.833 1147.5,835.167 1147.5,826.5 Z"/></g>
<g><path style="opacity:1" fill="#ed1005" d="M 996.5,830.5 C 1037.5,830.333 1078.5,830.5 1119.5,831C 1126.02,832.183 1130.85,835.683 1134,841.5C 1135.59,851.759 1135.93,862.093 1135,872.5C 1132.32,879.845 1127.15,884.345 1119.5,886C 1077.12,886.978 1034.79,886.645 992.5,885C 985.93,882.762 981.763,878.262 980,871.5C 979.333,862.833 979.333,854.167 980,845.5C 982.558,837.103 988.058,832.103 996.5,830.5 Z"/></g>
<g><path style="opacity:1" fill="#ec0400" d="M 1147.5,861.5 C 1150.5,861.5 1153.5,861.5 1156.5,861.5C 1156.5,870.167 1156.5,878.833 1156.5,887.5C 1153.5,887.5 1150.5,887.5 1147.5,887.5C 1147.5,878.833 1147.5,870.167 1147.5,861.5 Z"/></g>
<g><path style="opacity:1" fill="#ed180f" d="M 959.5,873.5 C 962.5,873.5 965.5,873.5 968.5,873.5C 968.5,876.5 968.5,879.5 968.5,882.5C 965.5,882.5 962.5,882.5 959.5,882.5C 959.5,879.5 959.5,876.5 959.5,873.5 Z"/></g>
<g><path style="opacity:1" fill="#ec0d06" d="M 959.5,890.5 C 962.5,890.5 965.5,890.5 968.5,890.5C 968.5,893.5 968.5,896.5 968.5,899.5C 965.5,899.5 962.5,899.5 959.5,899.5C 959.5,896.5 959.5,893.5 959.5,890.5 Z"/></g>
<g><path style="opacity:1" fill="#ed1005" d="M 996.5,896.5 C 1037.5,896.333 1078.5,896.5 1119.5,897C 1126.02,898.183 1130.85,901.683 1134,907.5C 1135.59,917.759 1135.93,928.093 1135,938.5C 1132.32,945.845 1127.15,950.345 1119.5,952C 1077.12,952.978 1034.79,952.645 992.5,951C 985.93,948.762 981.763,944.262 980,937.5C 979.333,928.833 979.333,920.167 980,911.5C 982.532,903.131 988.032,898.131 996.5,896.5 Z"/></g>
<g><path style="opacity:1" fill="#ec0d06" d="M 959.5,908.5 C 962.5,908.5 965.5,908.5 968.5,908.5C 968.5,911.167 968.5,913.833 968.5,916.5C 965.5,916.5 962.5,916.5 959.5,916.5C 959.5,913.833 959.5,911.167 959.5,908.5 Z"/></g>
<g><path style="opacity:1" fill="#ee2313" d="M 1147.5,913.5 C 1150.5,913.5 1153.5,913.5 1156.5,913.5C 1156.5,916.5 1156.5,919.5 1156.5,922.5C 1153.5,922.5 1150.5,922.5 1147.5,922.5C 1147.5,919.5 1147.5,916.5 1147.5,913.5 Z"/></g>
<g><path style="opacity:1" fill="#ec0400" d="M 1147.5,930.5 C 1150.5,930.5 1153.5,930.5 1156.5,930.5C 1156.5,933.5 1156.5,936.5 1156.5,939.5C 1153.5,939.5 1150.5,939.5 1147.5,939.5C 1147.5,936.5 1147.5,933.5 1147.5,930.5 Z"/></g>
<g><path style="opacity:1" fill="#fefeff" d="M 2307.5,931.5 C 2308.5,931.5 2309.5,931.5 2310.5,931.5C 2311.83,1143.47 2311.83,1355.47 2310.5,1567.5C 2176.34,1492.25 2042.34,1416.75 1908.5,1341C 1907.84,1310.57 1907.5,1280.07 1907.5,1249.5C 1907.5,1218.93 1907.84,1188.43 1908.5,1158C 2041.89,1082.98 2174.89,1007.48 2307.5,931.5 Z"/></g>
<g><path style="opacity:1" fill="#ec0400" d="M 1147.5,948.5 C 1150.5,948.5 1153.5,948.5 1156.5,948.5C 1156.5,951.167 1156.5,953.833 1156.5,956.5C 1153.5,956.5 1150.5,956.5 1147.5,956.5C 1147.5,953.833 1147.5,951.167 1147.5,948.5 Z"/></g>
<g><path style="opacity:1" fill="#ed1005" d="M 996.5,962.5 C 1038.55,962.022 1080.55,962.522 1122.5,964C 1128.67,966.167 1132.83,970.333 1135,976.5C 1135.67,985.833 1135.67,995.167 1135,1004.5C 1132.32,1011.84 1127.15,1016.34 1119.5,1018C 1078.17,1018.67 1036.83,1018.67 995.5,1018C 982.38,1013.62 977.047,1004.45 979.5,990.5C 977.094,975.94 982.761,966.606 996.5,962.5 Z"/></g>
<g><path style="opacity:1" fill="#ec0d06" d="M 959.5,977.5 C 962.5,977.5 965.5,977.5 968.5,977.5C 968.5,980.5 968.5,983.5 968.5,986.5C 965.5,986.5 962.5,986.5 959.5,986.5C 959.5,983.5 959.5,980.5 959.5,977.5 Z"/></g>
<g><path style="opacity:1" fill="#ec0d06" d="M 959.5,995.5 C 962.5,995.5 965.5,995.5 968.5,995.5C 968.5,998.167 968.5,1000.83 968.5,1003.5C 965.5,1003.5 962.5,1003.5 959.5,1003.5C 959.5,1000.83 959.5,998.167 959.5,995.5 Z"/></g>
<g><path style="opacity:1" fill="#256aff" d="M 1343.5,918.5 C 1381.43,918.266 1418.43,924.1 1454.5,936C 1496.26,948.81 1536.6,965.143 1575.5,985C 1589.65,991.987 1601.81,1001.49 1612,1013.5C 1620.99,1027.46 1625.33,1042.8 1625,1059.5C 1625.74,1077.49 1626.24,1095.49 1626.5,1113.5C 1625.54,1161.18 1624.38,1208.84 1623,1256.5C 1617.62,1280.22 1603.12,1295.05 1579.5,1301C 1553.29,1305.94 1532.79,1297.44 1518,1275.5C 1514.67,1269.18 1512.34,1262.52 1511,1255.5C 1510.89,1197.16 1510.73,1138.83 1510.5,1080.5C 1493.61,1073.22 1476.61,1066.22 1459.5,1059.5C 1471.98,1131.42 1486.48,1203.08 1503,1274.5C 1539.52,1407.33 1576.52,1540 1614,1672.5C 1616.64,1710.06 1600.14,1734.89 1564.5,1747C 1530.05,1753.03 1504.89,1740.53 1489,1709.5C 1461.11,1609.59 1432.78,1509.92 1404,1410.5C 1368.71,1438.79 1333.71,1467.46 1299,1496.5C 1274.34,1562.48 1249.67,1628.48 1225,1694.5C 1215.14,1715.85 1198.64,1728.68 1175.5,1733C 1144.29,1736.95 1120.79,1725.45 1105,1698.5C 1099.8,1684.96 1098.14,1670.96 1100,1656.5C 1113.98,1617.22 1127.98,1577.88 1142,1538.5C 1156.84,1500.32 1171.51,1461.99 1186,1423.5C 1190,1417.02 1194.83,1411.19 1200.5,1406C 1227.83,1384.67 1255.17,1363.33 1282.5,1342C 1286.86,1338.63 1290.86,1334.97 1294.5,1331C 1281.59,1275.46 1270.09,1219.63 1260,1163.5C 1248.69,1180.82 1235.86,1196.98 1221.5,1212C 1210.7,1221.6 1198.04,1226.94 1183.5,1228C 1144.83,1228.67 1106.17,1228.67 1067.5,1228C 1043.12,1227.99 1018.78,1226.99 994.5,1225C 975.36,1219.19 962.86,1206.69 957,1187.5C 949.821,1152.02 962.988,1127.52 996.5,1114C 1049.17,1113.87 1101.84,1113.7 1154.5,1113.5C 1175.8,1081.7 1197.3,1050.03 1219,1018.5C 1236.35,993.704 1256.19,970.871 1278.5,950C 1297.16,933.28 1318.83,922.78 1343.5,918.5 Z"/></g>
<g><path style="opacity:1" fill="#ec0d06" d="M 959.5,1012.5 C 962.5,1012.5 965.5,1012.5 968.5,1012.5C 968.5,1015.5 968.5,1018.5 968.5,1021.5C 965.5,1021.5 962.5,1021.5 959.5,1021.5C 959.5,1018.5 959.5,1015.5 959.5,1012.5 Z"/></g>
<g><path style="opacity:1" fill="#ec0400" d="M 1147.5,1017.5 C 1150.5,1017.5 1153.5,1017.5 1156.5,1017.5C 1156.5,1020.5 1156.5,1023.5 1156.5,1026.5C 1153.5,1026.5 1150.5,1026.5 1147.5,1026.5C 1147.5,1023.5 1147.5,1020.5 1147.5,1017.5 Z"/></g>
<g><path style="opacity:1" fill="#ec0802" d="M 969.5,1054.5 C 969.5,1052.83 969.5,1051.17 969.5,1049.5C 971.641,1034.2 980.474,1025.86 996,1024.5C 1016.77,1027.02 1025.77,1038.69 1023,1059.5C 1016.38,1076.4 1004.21,1082.56 986.5,1078C 975.976,1073.65 970.309,1065.81 969.5,1054.5 Z"/></g>
<g><path style="opacity:1" fill="#ec0702" d="M 1052.5,1024.5 C 1068.46,1023.39 1078.96,1030.39 1084,1045.5C 1085.5,1069.33 1074.33,1080.5 1050.5,1079C 1035.74,1073.64 1028.9,1063.14 1030,1047.5C 1033.02,1035.32 1040.52,1027.65 1052.5,1024.5 Z"/></g>
<g><path style="opacity:1" fill="#ec0702" d="M 1113.5,1024.5 C 1129.66,1023.82 1140.16,1031.16 1145,1046.5C 1145.96,1069.78 1134.79,1080.61 1111.5,1079C 1095.95,1073.75 1089.12,1062.92 1091,1046.5C 1094.46,1034.88 1101.96,1027.54 1113.5,1024.5 Z"/></g>
<g><path style="opacity:1" fill="#ee2313" d="M 1147.5,1034.5 C 1150.5,1034.5 1153.5,1034.5 1156.5,1034.5C 1156.5,1037.5 1156.5,1040.5 1156.5,1043.5C 1153.5,1043.5 1150.5,1043.5 1147.5,1043.5C 1147.5,1040.5 1147.5,1037.5 1147.5,1034.5 Z"/></g>
<g><path style="opacity:1" fill="#ec0802" d="M 967.5,1047.5 C 967.5,1055.83 967.5,1064.17 967.5,1072.5C 965.052,1073.47 962.385,1073.81 959.5,1073.5C 959.5,1064.83 959.5,1056.17 959.5,1047.5C 962.167,1047.5 964.833,1047.5 967.5,1047.5 Z"/></g>
<g><path style="opacity:1" fill="#f14039" d="M 967.5,1047.5 C 968.167,1048.17 968.833,1048.83 969.5,1049.5C 969.5,1051.17 969.5,1052.83 969.5,1054.5C 968.833,1060.5 968.167,1066.5 967.5,1072.5C 967.5,1064.17 967.5,1055.83 967.5,1047.5 Z"/></g>
<g><path style="opacity:1" fill="#ed1209" d="M 1147.5,1052.5 C 1150.5,1052.5 1153.5,1052.5 1156.5,1052.5C 1156.5,1055.5 1156.5,1058.5 1156.5,1061.5C 1153.5,1061.5 1150.5,1061.5 1147.5,1061.5C 1147.5,1058.5 1147.5,1055.5 1147.5,1052.5 Z"/></g>
<g><path style="opacity:1" fill="#ec0902" d="M 968.5,1079.5 C 971.675,1081.13 975.009,1082.63 978.5,1084C 982.152,1084.5 985.818,1084.67 989.5,1084.5C 989.5,1087.17 989.5,1089.83 989.5,1092.5C 979.069,1094.75 970.402,1091.91 963.5,1084C 965.618,1082.95 967.284,1081.45 968.5,1079.5 Z"/></g>
<g><path style="opacity:1" fill="#ec0803" d="M 1140.5,1082.5 C 1144.01,1083 1146.35,1085 1147.5,1088.5C 1146.33,1089.58 1145,1090.42 1143.5,1091C 1135.59,1092.4 1127.59,1092.9 1119.5,1092.5C 1119.5,1089.83 1119.5,1087.17 1119.5,1084.5C 1125.51,1084.67 1131.51,1084.5 1137.5,1084C 1138.74,1083.77 1139.74,1083.27 1140.5,1082.5 Z"/></g>
<g><path style="opacity:1" fill="#ec0400" d="M 998.5,1084.5 C 1001.17,1084.5 1003.83,1084.5 1006.5,1084.5C 1006.5,1087.17 1006.5,1089.83 1006.5,1092.5C 1003.83,1092.5 1001.17,1092.5 998.5,1092.5C 998.5,1089.83 998.5,1087.17 998.5,1084.5 Z"/></g>
<g><path style="opacity:1" fill="#ec0904" d="M 1015.5,1084.5 C 1018.5,1084.5 1021.5,1084.5 1024.5,1084.5C 1024.5,1087.17 1024.5,1089.83 1024.5,1092.5C 1021.5,1092.5 1018.5,1092.5 1015.5,1092.5C 1015.5,1089.83 1015.5,1087.17 1015.5,1084.5 Z"/></g>
<g><path style="opacity:1" fill="#ec0400" d="M 1050.5,1084.5 C 1059.17,1084.5 1067.83,1084.5 1076.5,1084.5C 1076.5,1087.17 1076.5,1089.83 1076.5,1092.5C 1067.83,1092.5 1059.17,1092.5 1050.5,1092.5C 1050.5,1089.83 1050.5,1087.17 1050.5,1084.5 Z"/></g>
<g><path style="opacity:1" fill="#ec0903" d="M 1085.5,1084.5 C 1094.17,1084.5 1102.83,1084.5 1111.5,1084.5C 1111.5,1087.17 1111.5,1089.83 1111.5,1092.5C 1102.83,1092.5 1094.17,1092.5 1085.5,1092.5C 1085.5,1089.83 1085.5,1087.17 1085.5,1084.5 Z"/></g>
<g><path style="opacity:1" fill="#fefeff" d="M 2499.5,1920.5 C 2499.5,2113.5 2499.5,2306.5 2499.5,2499.5C 1666.17,2499.5 832.833,2499.5 -0.5,2499.5C -0.5,2254.5 -0.5,2009.5 -0.5,1764.5C 43.2176,1840.08 108.218,1886.24 194.5,1903C 272.494,1904.2 350.494,1904.86 428.5,1905C 783.833,1905.67 1139.17,1905.67 1494.5,1905C 1555.84,1904.71 1617.17,1904.04 1678.5,1903C 1715.3,1896.43 1749.63,1883.43 1781.5,1864C 1854.12,1815.63 1894.95,1747.8 1904,1660.5C 1904.47,1637.45 1905.63,1614.45 1907.5,1591.5C 2084.67,1692.25 2262,1792.75 2439.5,1893C 2456.34,1902.25 2473.34,1911.25 2490.5,1920C 2493.48,1920.5 2496.48,1920.66 2499.5,1920.5 Z"/></g>
</svg>
