<?xml version="1.0" encoding="UTF-8"?>
<svg width="500pt" height="500pt" version="1.0" viewBox="0 0 500 500" xmlns="http://www.w3.org/2000/svg">
<g transform="translate(0 500) scale(.1 -.1)" fill="#256aff">
<path d="m2360 4994c-473-42-892-187-1255-435-153-104-248-184-391-330-200-205-327-385-455-644-110-224-182-452-226-710-26-158-26-592 0-750 88-526 316-980 676-1349 222-226 420-371 696-506 260-128 484-199 760-242 166-25 518-30 675-10 411 54 780 191 1113 412 458 304 803 750 982 1270 44 127 46 140 43 220-5 100-27 156-90 220-110 114-287 129-424 38-67-45-105-106-149-240-219-667-792-1148-1493-1253-138-20-398-20-537 0-765 114-1373 673-1539 1416-92 412-39 821 154 1206 88 174 176 297 315 441 322 334 727 524 1204 564 390 33 825-81 1162-304 91-60 250-187 248-198 0-3-90-84-200-180-328-287-329-288-329-336 0-44 26-88 58-98 9-3 361-44 782-91 721-81 767-85 798-70 64 30 62 5 62 842 0 582-3 764-13 782-6 14-27 34-46 45-31 18-37 18-72 5-24-9-129-95-284-232l-246-218-82 74c-173 156-334 269-527 370-258 137-544 229-842 272-101 15-439 27-528 19z"/>
</g>
</svg>