<?xml version="1.0" encoding="UTF-8"?>
<svg width="980pt" height="834pt" version="1.0" viewBox="0 0 980 834" xmlns="http://www.w3.org/2000/svg">
<g transform="translate(0 834) scale(.1 -.1)" fill="#fff">
<path d="m4665 8324c-16-2-77-9-135-15-573-60-1179-284-1685-622-223-149-276-197-334-306-45-85-64-178-58-281 13-197 114-353 282-436 68-33 88-38 167-42 139-7 195 12 358 124 172 116 244 160 372 227 405 209 845 319 1283 321 151 0 196-4 398-38 539-89 494-76 833-228 233-104 327-152 419-213 313-206 576-460 822-792 201-272 412-697 527-1063 101-320 166-690 166-946v-94h-360c-198 0-360-3-360-6 0-8 1210-1944 1215-1944s1215 1936 1215 1944c0 3-163 7-362 8l-363 3-7 170c-18 476-131 987-335 1505-80 204-255 562-361 736-119 197-536 727-688 874-308 298-590 500-929 665-536 261-679 310-1175 399-107 19-244 40-305 46-100 9-527 12-600 4z"/>
<path d="m616 5401c-333-533-606-974-606-980 0-8 105-11 363-11h364l6-177c14-392 92-793 241-1238 87-258 165-444 286-685 147-289 226-411 490-749 270-346 401-484 652-685 163-131 411-298 536-360 149-75 470-225 558-261 143-60 410-133 639-174 314-57 331-60 534-71 642-35 1318 117 1918 430 255 133 535 320 617 412 231 256 155 674-149 824-68 33-88 38-167 42-142 7-193-11-373-133-250-170-413-257-651-350-284-111-584-173-924-191-144-7-212 0-560 57-425 70-405 64-731 210-299 133-407 193-572 317-204 154-355 299-534 515-259 312-451 646-601 1048-138 367-232 829-232 1139v90h360c198 0 360 3 360 6 0 8-1210 1944-1215 1944-2 0-276-436-609-969z"/>
</g>
</svg>