<?xml version="1.0" encoding="UTF-8"?>
<svg width="512pt" height="512pt" version="1.0" viewBox="0 0 512 512" xmlns="http://www.w3.org/2000/svg">
<g transform="translate(0 512) scale(.1 -.1)" fill="#256aff">
<path d="m952 4429c-101-20-192-95-241-198l-26-56v-1615-1615l26-56c37-79 90-133 167-171l67-33h1615 1615l67 33c77 38 130 92 167 171l26 56 3 1405 2 1404-342 343-343 343-170-2-170-3-5-540c-6-603-2-573-78-625l-36-25h-820c-803 0-822 0-854 20-18 11-43 36-55 55-22 35-22 42-27 575l-5 540-270 1c-148 1-289-2-313-7zm2610-2077c73-36 124-87 160-161 23-46 23-48 26-608l2-563h-1190-1190v548c0 607-1 593 65 684 41 55 95 94 168 120 49 16 108 17 972 15l920-2 67-33z"/>
<path d="m2730 4010v-430h170 170v430 430h-170-170v-430z"/>
</g>
</svg>