<?xml version="1.0" encoding="UTF-8"?>
<svg width="512pt" height="512pt" version="1.0" viewBox="0 0 512 512" xmlns="http://www.w3.org/2000/svg">
<g transform="translate(0 512) scale(.1 -.1)" fill="#256aff">
<path d="m1948 4442c-566-565-568-567-568-608 0-74 71-128 136-104 17 6 247 229 537 518l507 507 508-507c289-289 519-512 536-518 65-24 136 30 136 104 0 41-2 43-568 608l-567 568h-45-45l-567-568z"/>
<path d="m1952 3597c-556-556-564-565-569-609-5-40-2-49 25-79 26-29 37-34 76-34h46l1030 1030 1030-1030h46c39 0 50 5 75 33 22 25 29 42 29 75v42l-568 567-567 568h-45-45l-563-563z"/>
<path d="m1857 2750c-38-30-52-80-33-123 29-69 1-67 736-67s707-3 736 67c20 46 10 86-28 118l-30 25h-677c-665 0-679 0-704-20z"/>
<path d="m1444 2240c-37-15-64-59-64-104 0-41 2-43 568-608l567-568h45 45l567 568 568 567v42c0 76-80 134-141 103-13-7-252-240-531-519l-508-506-507 506c-280 279-518 512-530 518-25 13-49 13-79 1z"/>
<path d="m1409 1361c-23-24-29-38-29-73v-43l568-567 567-568h45 45l567 568 568 567v43c0 35-6 49-29 73-24 24-38 29-78 29h-48l-1025-1025-1025 1025h-48c-40 0-54-5-78-29z"/>
</g>
</svg>