<svg xmlns="http://www.w3.org/2000/svg" width="170.667" height="170.667" viewBox="0 0 128 128" preserveAspectRatio="xMidYMid meet" fill="#256aff"><path d="M60 6.1c-9.9 8.6-22.6 13.7-36.3 14.6-12.4.8-12.1.3-11.4 18.8 1.1 28.9 10 50.9 28 68.9C47 115.1 62 126 64.5 126s17.2-10.8 23.9-17.4C107.2 89.8 117 64.5 117 34.7c0-6.7-.4-10.9-1.2-11.9-1-1.2-3.7-1.7-10.3-2.1-13.8-.7-26.8-5.9-36.6-14.6l-4.4-3.8L60 6.1zm18.5 12.6c8.5 4.2 24.6 8.3 32.7 8.3.8 0 .9 4 .5 12.7-1.4 33.3-16.5 61.2-41.6 77.2l-5.3 3.4-4.4-2.4c-6.4-3.5-16.7-12.7-23-20.5C24.4 81 17 58.8 17 35.9v-8.8l4.7-.6c10.6-1.3 16.7-2.8 23.5-5.5 6.6-2.7 17.1-9.1 18.4-11.1.3-.5 2.8.9 5.7 3s7 4.8 9.2 5.8zm-18.5 1C52.7 25 36.2 31 28.8 31c-5.4 0-5.8.6-5.8 9.4 0 28.4 13.7 54.8 36.4 70.2 4.9 3.3 5 3.3 7.9 1.6 5.8-3.4 16.5-13.2 21.2-19.4 11.7-15.6 18.1-35.8 17.3-54.3l-.3-7-6-.6c-9.2-.9-19.2-4.4-27.3-9.4-4.1-2.5-7.7-4.5-8-4.5-.4.1-2.3 1.2-4.2 2.7zm7.3 11.5c2.1 2.5 2.2 6.6.2 8.8-1.4 1.5-1 1.8 4.2 3.3 12 3.4 13.8 6 12.6 18.2-.5 5.8-.9 6.6-3 7.1-1.3.4-3 0-4-.7-1.4-1.2-1.5-1.1-1 .6C81.8 86.5 84 96.2 83 98c-1.2 2.2-6.4 2.8-7.5 1-.4-.6-2-5.6-3.5-11.2-1.6-5.5-3.1-10.2-3.3-10.4s-2 1.1-3.9 2.8c-2.5 2.3-4.5 5.6-6.3 10.6-2.9 7.7-4 8.8-7.9 7.8-3.6-.9-3.6-3.6-.1-13 2.4-6.5 4.2-9.5 6.9-11.9l3.7-3.2-1.2-5.3c-1.2-5.1-1.3-5.2-3.1-3.2-1.6 1.7-3.2 2-9.3 2-5.4 0-7.8-.4-8.9-1.6-1.9-1.8-1.9-2-.6-4.5.9-1.5 2.2-1.9 7-1.9h5.9l4-5.4c2.3-3 4.5-5.7 5.1-6.1 1.6-1 1.2-2.2-1-2.8-2.5-.7-4.4-4.9-3.6-8.1.7-3 5.2-5.7 8.1-5 1.1.3 2.8 1.5 3.8 2.6zM73 53.7l1.5 6.3 1.3 5.5.1-6.3c.1-4.9-.2-6.2-1.4-6.2-.8 0-1.5.3-1.5.7z"/></svg>