<?xml version="1.0" encoding="UTF-8"?>
<svg width="64pt" height="64pt" version="1.0" viewBox="0 0 64 64" xmlns="http://www.w3.org/2000/svg">
<g transform="translate(0 64) scale(.1 -.1)" fill="#256aff">
<path d="m257 584c-4-4-7-22-7-40 0-23-7-36-26-49-23-15-29-15-64-1l-39 15-64-112 32-26c20-17 31-35 31-51s-11-34-31-51l-32-26 32-56 32-57 36 15c19 8 38 15 42 15 20-1 45-35 50-67l6-38h65 65l6 38c5 32 30 66 50 67 4 0 23-7 42-15l36-15 64 112-32 25c-42 33-42 73 0 106l32 25-32 56-32 55-39-15c-35-14-41-14-64 1-18 12-26 27-28 53l-3 37-60 3c-34 2-64 0-68-4zm128-199c36-35 35-97-1-130-61-57-154-17-154 65 0 56 34 90 90 90 30 0 47-6 65-25z"/>
</g>
</svg>