<?xml version="1.0" encoding="UTF-8"?>
<svg width="64pt" height="64pt" version="1.0" viewBox="0 0 64 64" xmlns="http://www.w3.org/2000/svg">
<g transform="translate(0 64) scale(.1 -.1)" fill="#256aff">
<path d="m473 626c-36-17-60-49-69-94-6-29-17-38-101-81l-94-48-41 20c-37 19-44 19-81 6-110-39-110-179 0-218 37-13 44-13 80 5l41 20 92-46c89-45 93-48 109-95 20-59 57-90 111-90 51 0 91 30 109 82 13 36 12 43-5 79-13 26-32 45-58 58-38 18-41 18-91 2l-51-18-92 46c-64 32-92 52-92 64 0 11 32 33 98 67l97 50 38-19c33-16 45-17 77-7 69 21 103 90 76 154-25 61-94 89-153 63z"/>
</g>
</svg>