<svg xmlns="http://www.w3.org/2000/svg" width="300" height="300" viewBox="0 0 225 225" preserveAspectRatio="xMidYMid meet" fill="#256aff"><path d="M97.5 1.1C54.4 6.6 16.8 39.3 4.4 81.8c-7 24.4-4.9 53.2 5.6 76.7 10.6 23.6 33 45.9 56.6 56.6 28.6 12.8 63.2 12.8 91.8 0 23.6-10.7 46-33 56.6-56.6 12.9-28.8 12.9-63.2 0-92-4.9-11-15-25.2-24.2-34.1C165.6 7.9 132.3-3.3 97.5 1.1zm26 12c23.4 2.9 43.1 12.4 59.6 28.8 34.4 34.5 39.2 86.9 11.6 127.6-5.2 7.7-17.5 20-25.2 25.2-35.1 23.8-78.9 23.8-114 0-7.7-5.2-20-17.5-25.2-25.2-23.8-35.1-23.8-78.9 0-114 5.2-7.7 17.5-20 25.2-25.2 13.4-9.1 29.6-15.3 45-17.2 10-1.2 12.9-1.2 23 0zm34 49.8c-1.6 1-17.6 16.6-35.5 34.5L89.6 130 78 118.6c-13-12.9-15.4-14-22.8-11.1-6.8 2.7-10.1 8.9-8.7 16.2.6 3.1 3.5 6.6 17.3 20.6 9.2 9.3 18.1 17.6 19.9 18.3 4.2 1.8 8.7 1.8 12.1 0 1.5-.8 20.6-19.4 42.4-41.3 42.9-43.1 42.5-42.6 39.9-50.6-2.8-8.4-13.3-12.4-20.6-7.8z"/></svg>