<?xml version="1.0" encoding="UTF-8"?>
<svg width="225pt" height="225pt" version="1.0" viewBox="0 0 225 225" xmlns="http://www.w3.org/2000/svg">
<g transform="translate(0 225) scale(.1 -.1)" fill="#256aff">
<path d="m658 1920-93-139-156-1c-177 0-234-12-301-63-27-20-54-55-73-92l-30-59v-580-581l28-57c30-61 64-95 131-131l41-22 900-3c1001-3 963-5 1044 65 22 18 52 59 68 91l28 57v580c0 570 0 581-21 626-27 58-85 116-143 143-40 18-68 21-221 24l-175 4-93 139-92 139h-375-375l-92-140zm837-180 90-140h193c205 0 250-8 271-48 8-14 11-196 11-571v-550l-48-56h-887-887l-48 56v550c0 375 3 557 11 571 21 40 66 48 271 48l193 1 93 139 92 140h278l277-1 90-139z"/>
<path d="m1035 1488c-81-15-174-66-236-128-230-229-165-608 128-748 77-36 80-37 198-37s121 1 198 37c293 140 358 519 128 748-64 65-156 113-245 129-69 13-101 12-171-1zm205-199c58-26 105-72 138-134 22-41 27-63 26-125 0-64-4-83-29-129-54-97-142-151-250-151s-196 54-250 151c-25 46-29 65-29 129-1 62 4 84 26 125 55 104 138 155 253 155 49 0 84-7 115-21z"/>
</g>
</svg>