<?xml version="1.0" encoding="UTF-8"?>
<svg width="128pt" height="128pt" version="1.0" viewBox="0 0 128 128" xmlns="http://www.w3.org/2000/svg">
<g transform="translate(0 128) scale(.1 -.1)" fill="#256aff">
<path d="m470 1273c-59-10-153-47-207-82-71-46-158-139-196-208-36-67-67-191-67-267 1-212 129-414 321-505 91-44 201-67 278-58 43 5 47 3 84-39 23-26 65-56 105-76 60-30 75-33 152-33 106 1 174 31 244 105 69 74 90 127 91 230 0 77-3 92-33 152-20 40-50 82-76 105-42 37-44 41-39 84 9 77-14 187-58 278-92 195-298 323-509 319-36 0-76-3-90-5zm-77-107c-27-29-62-79-79-110-16-31-32-56-35-56-5 0-73 51-88 66-21 20 187 152 243 154 4 0-14-24-41-54zm147-102v-156l-42 7c-46 7-132 32-161 47-16 8-16 11 4 51 34 68 88 135 137 172 25 19 49 35 53 35 5 0 9-70 9-156zm110 122c69-54 150-168 150-210 0-15-94-50-167-61l-43-7v156c0 86 4 156 9 156 4 0 27-15 51-34zm138-3c28-13 75-43 104-65l51-41-41-39c-23-21-45-38-49-38s-22 26-40 58-53 83-80 112c-53 59-46 60 55 13zm-575-194 54-42-13-56c-7-31-16-77-19-103l-6-48h-90-89v38c0 46 41 162 75 213 14 22 27 39 30 39s29-19 58-41zm799-15c33-58 68-164 68-205v-29h-95-95v48c0 26-6 72-14 102s-12 58-8 62c26 26 99 76 107 74 6-1 22-25 37-52zm-637-75c33-12 84-23 113-26l52-6v-63-64h-130-130v27c0 41 21 153 29 153 4 0 34-9 66-21zm462-40c6-30 12-69 12-86l1-33h-130-130v65 65l38 1c20 0 69 11 107 23 39 13 75 23 80 22 6-2 15-27 22-57zm-602-216c3-27 12-74 19-105l14-58-32-20c-18-10-41-28-51-40-10-11-22-20-26-20-29 0-108 185-109 253v37h89 90l6-47zm303-15-3-63-56-7c-31-4-80-16-110-27-30-12-57-21-60-21-8 0-29 113-29 153v27h130 131l-3-62zm312 54c0-5-18-14-40-21-22-6-65-32-96-57-44-36-62-45-87-42-32 3-32 3-35 66l-3 62h131c71 0 130-4 130-8zm230-8c0-11-6-14-22-8-13 4-39 11-58 15-31 6-28 7 23 8 46 1 57-2 57-15zm-1-69c227-124 195-463-52-544-92-31-214-5-292 62-80 67-116 209-80 316 23 71 100 154 168 181 77 30 184 24 256-15zm-539-240c0-85-3-155-7-155-13 0-87 63-120 100-37 44-83 122-83 143 0 22 113 63 183 66l27 1v-155zm90 136c-5-11-17-44-24-73l-15-53v73c-1 71-1 72 24 72 22 0 24-3 15-19zm-317-125c15-29 50-78 78-109l50-57-39 14c-66 24-135 63-177 100l-40 36 40 35c22 19 45 35 50 35 6 0 23-24 38-54zm291-118c5-32 4-48-3-48s-11 22-11 52c0 62 5 60 14-4z"/>
<path d="m879 604c-55-10-133-67-166-122-112-189 29-419 247-399 130 11 226 107 237 237 16 175-140 315-318 284zm162-70c55-30 92-79 109-142 39-150-112-301-263-261-100 26-167 111-167 210 1 170 173 273 321 193z"/>
<path d="m905 477c-3-7-5-49-3-93l3-79h70c63 0 70 2 70 20 0 17-8 20-52 23l-52 3-3 66c-2 42-8 68-15 71-7 2-15-3-18-11z"/>
</g>
</svg>