<?xml version="1.0" encoding="UTF-8"?>
<svg width="512pt" height="512pt" version="1.0" viewBox="0 0 512 512" xmlns="http://www.w3.org/2000/svg">
<g transform="translate(0 512) scale(.1 -.1)" fill="#256aff">
<path d="m2355 5110c-504-43-969-225-1375-538-101-78-334-308-412-407-294-374-468-774-539-1240-41-268-28-637 32-909 83-379 258-746 503-1056 76-96 299-319 395-394 558-442 1238-630 1940-540 450 58 894 247 1261 538 98 78 321 301 396 396 292 371 477 805 540 1270 23 169 23 491 0 660-147 1078-935 1936-1991 2169-216 48-535 69-750 51zm-343-875-3-95h115 116v55 55h320 320v-55-55h115 115v95 95l73-26c185-66 404-192 561-323l80-66-1024-3-1025-2-103 102-103 103 26 21c38 30 198 110 312 154 54 22 100 39 103 40 3 0 4-43 2-95zm2076-632c353-517 421-1187 177-1758-38-88-123-254-142-275-2-2-107 99-234 225-226 226-230 231-224 265 3 19 12 125 21 235 8 110 21 279 29 375 38 460 38 466 24 496-27 55-15 54-669 54h-605l-230 230h868c755 0 872 2 897 15 55 28 63 77 30 172-11 32-20 59-20 61 0 12 25-19 78-95zm-2894-242c154-154 187-192 182-209-4-11-2-78 4-148 10-123 22-265 55-679 8-102 22-268 30-370s22-269 30-373c30-367 44-557 41-560-8-7-175 126-253 201-610 585-749 1500-340 2234 29 51 54 93 57 93s90-85 194-189zm2107-424c59-39 61-53 49-268-6-106-15-218-18-251l-7-58-107 107-107 108 9 147c9 159 21 197 68 222 39 22 74 19 113-7zm-1287-436c4-25 13-161 21-301 9-140 22-363 30-495 40-633 44-727 34-752-29-77-138-95-194-33-22 24-31 104-50 420-8 140-22 363-30 495-22 354-44 715-51 840l-6 110 120-119c112-111 121-122 126-165zm664-1086c-3-442-4-461-23-487-23-33-82-54-120-44-15 4-40 20-56 36l-29 28v579 578l230-230-2-460zm581-288c-11-178-21-210-74-233-46-19-74-18-113 6-53 32-55 51-43 285 7 116 15 234 18 263l6 54 108-109 108-108-10-158z"/>
</g>
</svg>
