<?xml version="1.0" encoding="UTF-8"?>
<svg width="512pt" height="512pt" version="1.0" viewBox="0 0 512 512" xmlns="http://www.w3.org/2000/svg">
<g transform="translate(0 512) scale(.1 -.1)" fill="#256aff">
<path d="m2460 4570c-19-10-265-250-546-532-558-560-540-537-532-649 10-145 164-233 304-174 26 11 134 111 346 322l307 307 3-885c3-883 3-884 25-924 42-79 105-115 198-115s169 53 200 139c13 38 15 156 15 914v871l308-305c192-191 321-312 345-323 75-34 187-17 246 37 59 55 80 181 42 255-24 46-1024 1044-1068 1066-45 22-148 20-193-4z"/>
<path d="m685 2233c-56-29-95-75-111-130-13-45-15-117-12-465 4-399 5-415 27-482 35-105 77-174 155-251 81-80 159-125 267-155 75-20 85-20 1570-18l1494 3 62 22c201 73 341 226 393 429 18 71 20 112 20 489v411l-25 51c-16 32-41 61-67 79-37 26-49 29-124 29s-86-3-125-30c-23-16-53-50-66-74-23-44-23-45-23-436v-391l-25-50c-14-28-40-59-62-74l-37-25-1428-3c-1412-2-1429-2-1468 18-21 11-51 36-67 57l-28 36-5 411c-4 275-9 419-17 437-19 44-66 91-108 110-50 23-148 24-190 2z"/>
</g>
</svg>