<?xml version="1.0" encoding="UTF-8"?>
<svg width="64pt" height="64pt" version="1.0" viewBox="0 0 64 64" xmlns="http://www.w3.org/2000/svg">
<g transform="translate(0 64) scale(.1 -.1)" fill="#256aff">
<path d="m26 538c-23-33-23-403 0-436 15-22 17-22 294-22s279 0 294 22c23 33 23 403 0 436-15 22-17 22-294 22s-279 0-294-22zm134-33c0-24-3-25-60-25-52 0-60 3-60 18 0 28 9 32 67 32 50 0 53-1 53-25zm150 0c0-24-3-25-60-25s-60 1-60 25 3 25 60 25 60-1 60-25zm140 0c0-24-3-25-60-25s-60 1-60 25 3 25 60 25 60-1 60-25zm148-2c3-22 0-23-57-23-59 0-61 1-61 25 0 25 2 26 58 23 50-3 57-6 60-25zm2-183v-130h-280-280v130 130h280 280v-130zm-440-185c0-25-2-26-57-23-51 3-58 6-61 26-3 21 0 22 57 22 59 0 61-1 61-25zm150 0c0-24-3-25-60-25s-60 1-60 25 3 25 60 25 60-1 60-25zm140 0c0-24-3-25-60-25s-60 1-60 25 3 25 60 25 60-1 60-25zm148 3c-3-20-10-23-60-26-56-3-58-2-58 23 0 24 2 25 61 25 57 0 60-1 57-22z"/>
<path d="m270 320c0-44 3-80 6-80 13 0 124 72 124 80s-111 80-124 80c-3 0-6-36-6-80z"/>
</g>
</svg>