<?xml version="1.0" encoding="UTF-8"?>
<svg width="500pt" height="500pt" version="1.0" viewBox="0 0 500 500" xmlns="http://www.w3.org/2000/svg">
<g transform="translate(0 500) scale(.1 -.1)" fill="#256aff">
<path d="m466 4126c-54-20-85-45-120-94-38-53-47-141-22-194 24-51 2090-1848 2143-1865 50-15 100-15 144 1 24 8 402 331 1066 908 566 493 1041 910 1056 927 122 146-94 403-259 309-23-13-466-392-983-843-518-451-946-821-950-823-4-1-429 364-943 811-515 448-951 826-970 841-43 33-109 41-162 22z"/>
<path d="m190 3264c-45-20-106-78-133-129-29-54-30-147-2-195 23-39 2297-2026 2357-2059 49-27 105-35 154-22 33 9 262 203 1200 1017 637 554 1166 1017 1176 1029 10 13 23 45 29 72 40 173-161 347-316 274-22-10-512-429-1088-930s-1051-911-1056-911c-4 0-484 415-1067 921-582 507-1073 928-1091 935-42 18-119 17-163-2z"/>
</g>
</svg>