<?xml version="1.0" encoding="UTF-8"?>
<svg width="512pt" height="512pt" version="1.0" viewBox="0 0 512 512" xmlns="http://www.w3.org/2000/svg">
<g transform="translate(0 512) scale(.1 -.1)" fill="#256aff">
<path d="m2240 4144c-558-76-1076-336-1591-799-262-236-662-724-645-788 7-28 153-230 264-367 114-140 450-474 587-584 418-334 860-541 1325-622 126-22 503-30 641-15 324 37 670 149 965 312 442 245 856 615 1195 1069 60 79 116 159 126 177 17 32 17 34 0 66-10 18-66 98-126 177-339 454-753 824-1195 1069-285 157-607 265-919 306-148 19-481 18-627-1zm501-319c564-31 1179-349 1642-846 99-107 232-272 295-366l35-53-35-52c-113-170-322-408-487-556-530-473-1126-696-1764-661-535 30-1055 262-1507 671-170 154-365 377-478 546l-35 52 35 53c113 168 308 392 477 544 452 409 969 640 1501 672 69 4 148 6 175 5 28-2 93-6 146-9z"/>
<path d="m2360 3505c-357-80-630-337-732-691-20-69-23-101-23-254s3-185 23-254c97-334 344-581 678-678 69-20 101-23 254-23s185 3 254 23c334 97 581 344 678 678 20 69 23 101 23 254s-3 185-23 254c-96 333-342 580-673 677-97 28-359 36-459 14z"/>
</g>
</svg>